M48
;Layer_Color=9474304
;FILE_FORMAT=4:2
METRIC,TZ
;TYPE=PLATED
T01F00S00C0.20
T02F00S00C0.70
T03F00S00C3.20
%
T01
X820Y688
X1689Y414
X1572Y1976
X1591Y2151
X1474Y2148
X1502Y2290
X1500Y2382
X1495Y2486
X1492Y2582
X1491Y2672
X1605Y2675
X1606Y2585
X1609Y2488
X1614Y2384
X1616Y2293
X1733Y2295
X1731Y2387
X1849Y2403
X1847Y2494
X1844Y2588
X1723Y2587
X1722Y2677
X1775Y2913
X1844
X1488Y2870
X1415
X1316Y3160
X1189Y3104
X1047Y2705
X1049Y2611
Y2510
Y2410
X1059Y2314
Y2263
X1049Y2169
X937Y2166
X947Y2261
Y2311
X937Y2408
Y2507
Y2609
X936Y2703
X821Y2700
X823Y2606
Y2504
Y2405
X724Y2408
Y2507
Y2609
X722Y2703
X721Y2911
X653
X622Y2309
Y2258
X734Y2261
Y2311
X833Y2309
Y2258
X823Y2164
X724Y2166
X1966Y2390
X1963Y2482
X2201Y2698
T02
X1023Y1290
X937Y1496
X1521
X1436Y1703
T03
X300Y300
X2200Y300
Y3200
X300
M30
