G04*
G04 #@! TF.GenerationSoftware,Altium Limited,Altium Designer,24.9.1 (31)*
G04*
G04 Layer_Color=8388736*
%FSLAX44Y44*%
%MOMM*%
G71*
G04*
G04 #@! TF.SameCoordinates,FEB28A8C-77E3-45AE-8D42-727CA5368162*
G04*
G04*
G04 #@! TF.FilePolarity,Negative*
G04*
G01*
G75*
%ADD25R,0.7500X5.7000*%
%ADD26R,1.2000X5.7000*%
%ADD27R,2.2524X3.1524*%
%ADD28R,0.9524X1.7524*%
G04:AMPARAMS|DCode=29|XSize=1.1532mm|YSize=1.0532mm|CornerRadius=0.3141mm|HoleSize=0mm|Usage=FLASHONLY|Rotation=90.000|XOffset=0mm|YOffset=0mm|HoleType=Round|Shape=RoundedRectangle|*
%AMROUNDEDRECTD29*
21,1,1.1532,0.4250,0,0,90.0*
21,1,0.5250,1.0532,0,0,90.0*
1,1,0.6282,0.2125,0.2625*
1,1,0.6282,0.2125,-0.2625*
1,1,0.6282,-0.2125,-0.2625*
1,1,0.6282,-0.2125,0.2625*
%
%ADD29ROUNDEDRECTD29*%
%ADD30R,3.1524X2.2524*%
%ADD31R,1.7524X0.9524*%
%ADD32R,4.0000X6.8000*%
%ADD33R,0.7000X3.1500*%
%ADD34C,5.2032*%
%ADD35C,1.3032*%
%ADD36R,1.3032X1.3032*%
G36*
X222462Y285420D02*
X222495D01*
X222528Y285416D01*
X222561Y285413D01*
X222594Y285407D01*
X222627Y285403D01*
X223037Y285321D01*
X223070Y285312D01*
X223102Y285306D01*
X223134Y285295D01*
X223166Y285287D01*
X223197Y285274D01*
X223228Y285263D01*
X223615Y285103D01*
X223645Y285088D01*
X223676Y285075D01*
X223705Y285059D01*
X223735Y285044D01*
X223762Y285025D01*
X223791Y285009D01*
X224139Y284776D01*
X224166Y284756D01*
X224193Y284737D01*
X224218Y284715D01*
X224245Y284695D01*
X224269Y284671D01*
X224294Y284650D01*
X224590Y284354D01*
X224612Y284328D01*
X224635Y284305D01*
X224655Y284279D01*
X224677Y284253D01*
X224696Y284226D01*
X224716Y284199D01*
X224949Y283851D01*
X224965Y283822D01*
X224984Y283795D01*
X224999Y283765D01*
X225015Y283736D01*
X225028Y283705D01*
X225043Y283675D01*
X225203Y283288D01*
X225214Y283257D01*
X225226Y283226D01*
X225235Y283194D01*
X225246Y283162D01*
X225252Y283130D01*
X225261Y283097D01*
X225343Y282687D01*
X225347Y282654D01*
X225354Y282621D01*
X225356Y282588D01*
X225360Y282555D01*
Y282522D01*
X225362Y282488D01*
Y282279D01*
Y277029D01*
Y276820D01*
X225360Y276786D01*
Y276753D01*
X225356Y276720D01*
X225354Y276687D01*
X225347Y276654D01*
X225343Y276621D01*
X225261Y276210D01*
X225252Y276178D01*
X225246Y276146D01*
X225235Y276114D01*
X225226Y276082D01*
X225214Y276051D01*
X225203Y276020D01*
X225043Y275633D01*
X225028Y275603D01*
X225015Y275572D01*
X224999Y275543D01*
X224984Y275513D01*
X224965Y275486D01*
X224949Y275457D01*
X224716Y275109D01*
X224696Y275082D01*
X224677Y275055D01*
X224655Y275030D01*
X224635Y275003D01*
X224611Y274979D01*
X224590Y274954D01*
X224294Y274659D01*
X224268Y274636D01*
X224245Y274613D01*
X224219Y274593D01*
X224193Y274571D01*
X224166Y274552D01*
X224139Y274532D01*
X223791Y274299D01*
X223762Y274283D01*
X223735Y274264D01*
X223705Y274249D01*
X223676Y274233D01*
X223645Y274220D01*
X223615Y274205D01*
X223228Y274045D01*
X223197Y274034D01*
X223166Y274022D01*
X223134Y274013D01*
X223102Y274002D01*
X223070Y273996D01*
X223037Y273987D01*
X222627Y273905D01*
X222594Y273901D01*
X222561Y273895D01*
X222528Y273892D01*
X222495Y273888D01*
X222462D01*
X222428Y273886D01*
X215788D01*
X215786Y273886D01*
X215784Y273886D01*
X215718Y273890D01*
X215655Y273895D01*
X215653Y273895D01*
X215651Y273895D01*
X215587Y273908D01*
X215524Y273920D01*
X215522Y273921D01*
X215520Y273922D01*
X215459Y273943D01*
X215398Y273963D01*
X215396Y273964D01*
X215395Y273965D01*
X215334Y273995D01*
X215279Y274022D01*
X215277Y274023D01*
X215275Y274024D01*
X215220Y274061D01*
X215168Y274096D01*
X215167Y274097D01*
X215165Y274099D01*
X215115Y274142D01*
X215068Y274184D01*
X215067Y274186D01*
X215065Y274187D01*
X214311Y274946D01*
X214314Y274904D01*
X214305Y274771D01*
X214279Y274640D01*
X214237Y274514D01*
X214178Y274395D01*
X214104Y274284D01*
X214016Y274184D01*
X213916Y274096D01*
X213805Y274022D01*
X213686Y273963D01*
X213559Y273920D01*
X213429Y273895D01*
X213296Y273886D01*
X202599Y273886D01*
X202390D01*
X202356Y273888D01*
X202323D01*
X202290Y273892D01*
X202257Y273895D01*
X202224Y273901D01*
X202191Y273905D01*
X201780Y273987D01*
X201748Y273996D01*
X201716Y274002D01*
X201684Y274013D01*
X201652Y274022D01*
X201621Y274034D01*
X201590Y274045D01*
X201203Y274205D01*
X201173Y274220D01*
X201142Y274233D01*
X201113Y274249D01*
X201083Y274264D01*
X201056Y274283D01*
X201027Y274299D01*
X200679Y274532D01*
X200652Y274552D01*
X200625Y274571D01*
X200600Y274592D01*
X200573Y274613D01*
X200549Y274637D01*
X200524Y274659D01*
X200229Y274954D01*
X200206Y274980D01*
X200183Y275003D01*
X200163Y275029D01*
X200141Y275055D01*
X200122Y275082D01*
X200102Y275109D01*
X199869Y275457D01*
X199853Y275486D01*
X199834Y275513D01*
X199819Y275543D01*
X199803Y275572D01*
X199790Y275603D01*
X199775Y275633D01*
X199615Y276019D01*
X199604Y276051D01*
X199592Y276082D01*
X199583Y276114D01*
X199572Y276146D01*
X199566Y276178D01*
X199557Y276210D01*
X199475Y276621D01*
X199471Y276654D01*
X199464Y276687D01*
X199462Y276720D01*
X199458Y276753D01*
Y276786D01*
X199456Y276820D01*
Y277029D01*
Y277029D01*
Y282279D01*
Y282488D01*
X199458Y282522D01*
Y282555D01*
X199462Y282588D01*
X199464Y282621D01*
X199471Y282654D01*
X199475Y282687D01*
X199557Y283097D01*
X199566Y283130D01*
X199572Y283162D01*
X199583Y283194D01*
X199592Y283226D01*
X199604Y283257D01*
X199615Y283288D01*
X199775Y283675D01*
X199790Y283705D01*
X199803Y283736D01*
X199819Y283765D01*
X199834Y283795D01*
X199853Y283822D01*
X199869Y283851D01*
X200102Y284199D01*
X200122Y284226D01*
X200141Y284253D01*
X200163Y284278D01*
X200183Y284305D01*
X200207Y284329D01*
X200229Y284354D01*
X200524Y284650D01*
X200550Y284672D01*
X200573Y284695D01*
X200599Y284715D01*
X200625Y284737D01*
X200652Y284756D01*
X200679Y284776D01*
X201027Y285009D01*
X201056Y285025D01*
X201083Y285044D01*
X201113Y285059D01*
X201142Y285075D01*
X201173Y285088D01*
X201203Y285103D01*
X201590Y285263D01*
X201621Y285274D01*
X201652Y285287D01*
X201684Y285295D01*
X201716Y285306D01*
X201748Y285312D01*
X201780Y285321D01*
X202191Y285403D01*
X202224Y285407D01*
X202257Y285413D01*
X202290Y285416D01*
X202323Y285420D01*
X202356D01*
X202390Y285422D01*
X213342D01*
X213475Y285413D01*
X213605Y285387D01*
X213731Y285345D01*
X213851Y285286D01*
X213962Y285212D01*
X214062Y285124D01*
X214150Y285024D01*
X214224Y284913D01*
X214283Y284794D01*
X214325Y284667D01*
X214351Y284537D01*
X214360Y284410D01*
X215065Y285121D01*
X215067Y285122D01*
X215068Y285124D01*
X215117Y285167D01*
X215165Y285209D01*
X215166Y285210D01*
X215168Y285212D01*
X215222Y285248D01*
X215275Y285284D01*
X215277Y285285D01*
X215279Y285286D01*
X215336Y285314D01*
X215395Y285343D01*
X215396Y285344D01*
X215398Y285345D01*
X215459Y285365D01*
X215520Y285387D01*
X215522Y285387D01*
X215524Y285387D01*
X215590Y285401D01*
X215651Y285413D01*
X215653Y285413D01*
X215655Y285413D01*
X215724Y285418D01*
X215784Y285422D01*
X215786Y285422D01*
X215788Y285422D01*
X222428D01*
X222462Y285420D01*
D02*
G37*
G36*
X138206Y228316D02*
X132706D01*
Y256316D01*
X138206D01*
Y228316D01*
D02*
G37*
G36*
X129206D02*
X119206D01*
Y256316D01*
X129206D01*
Y228316D01*
D02*
G37*
G36*
X115706D02*
X110206D01*
Y256316D01*
X115706D01*
Y228316D01*
D02*
G37*
G36*
X222462Y74562D02*
X222495D01*
X222528Y74558D01*
X222561Y74556D01*
X222594Y74549D01*
X222627Y74545D01*
X223037Y74463D01*
X223070Y74454D01*
X223102Y74448D01*
X223134Y74437D01*
X223166Y74429D01*
X223197Y74416D01*
X223228Y74405D01*
X223615Y74245D01*
X223645Y74230D01*
X223676Y74217D01*
X223705Y74201D01*
X223735Y74186D01*
X223762Y74167D01*
X223791Y74151D01*
X224139Y73918D01*
X224166Y73898D01*
X224193Y73879D01*
X224218Y73857D01*
X224245Y73837D01*
X224269Y73813D01*
X224294Y73791D01*
X224590Y73496D01*
X224612Y73470D01*
X224635Y73447D01*
X224655Y73421D01*
X224677Y73395D01*
X224696Y73368D01*
X224716Y73341D01*
X224949Y72993D01*
X224965Y72964D01*
X224984Y72937D01*
X224999Y72907D01*
X225015Y72878D01*
X225028Y72847D01*
X225043Y72817D01*
X225203Y72431D01*
X225214Y72399D01*
X225226Y72368D01*
X225235Y72336D01*
X225246Y72304D01*
X225252Y72272D01*
X225261Y72239D01*
X225343Y71829D01*
X225347Y71796D01*
X225354Y71763D01*
X225356Y71730D01*
X225360Y71697D01*
Y71664D01*
X225362Y71630D01*
Y71421D01*
Y66171D01*
Y65962D01*
X225360Y65928D01*
Y65895D01*
X225356Y65862D01*
X225354Y65829D01*
X225347Y65796D01*
X225343Y65763D01*
X225261Y65353D01*
X225252Y65320D01*
X225246Y65288D01*
X225235Y65256D01*
X225226Y65224D01*
X225214Y65193D01*
X225203Y65162D01*
X225043Y64775D01*
X225028Y64745D01*
X225015Y64714D01*
X224999Y64685D01*
X224984Y64655D01*
X224965Y64628D01*
X224949Y64599D01*
X224716Y64251D01*
X224696Y64224D01*
X224677Y64197D01*
X224655Y64172D01*
X224635Y64145D01*
X224611Y64121D01*
X224590Y64096D01*
X224294Y63801D01*
X224268Y63778D01*
X224245Y63755D01*
X224219Y63735D01*
X224193Y63713D01*
X224166Y63694D01*
X224139Y63674D01*
X223791Y63441D01*
X223762Y63425D01*
X223735Y63406D01*
X223705Y63391D01*
X223676Y63375D01*
X223645Y63362D01*
X223615Y63347D01*
X223228Y63187D01*
X223197Y63176D01*
X223166Y63164D01*
X223134Y63155D01*
X223102Y63144D01*
X223070Y63138D01*
X223037Y63129D01*
X222627Y63047D01*
X222594Y63043D01*
X222561Y63036D01*
X222528Y63034D01*
X222495Y63030D01*
X222462D01*
X222428Y63028D01*
X215788D01*
X215786Y63028D01*
X215784Y63028D01*
X215718Y63032D01*
X215655Y63036D01*
X215653Y63037D01*
X215651Y63037D01*
X215587Y63050D01*
X215524Y63063D01*
X215522Y63063D01*
X215520Y63064D01*
X215459Y63085D01*
X215398Y63105D01*
X215396Y63106D01*
X215395Y63107D01*
X215334Y63137D01*
X215279Y63164D01*
X215277Y63165D01*
X215275Y63166D01*
X215220Y63203D01*
X215168Y63238D01*
X215167Y63239D01*
X215165Y63241D01*
X215115Y63284D01*
X215068Y63326D01*
X215067Y63327D01*
X215065Y63329D01*
X214311Y64088D01*
X214314Y64046D01*
X214305Y63913D01*
X214279Y63782D01*
X214237Y63656D01*
X214178Y63537D01*
X214104Y63426D01*
X214016Y63326D01*
X213916Y63238D01*
X213805Y63164D01*
X213686Y63105D01*
X213559Y63063D01*
X213429Y63036D01*
X213296Y63028D01*
X202599Y63028D01*
X202390D01*
X202356Y63030D01*
X202323D01*
X202290Y63034D01*
X202257Y63036D01*
X202224Y63043D01*
X202191Y63047D01*
X201780Y63129D01*
X201748Y63138D01*
X201716Y63144D01*
X201684Y63155D01*
X201652Y63164D01*
X201621Y63176D01*
X201590Y63187D01*
X201203Y63347D01*
X201173Y63362D01*
X201142Y63375D01*
X201113Y63391D01*
X201083Y63406D01*
X201056Y63425D01*
X201027Y63441D01*
X200679Y63674D01*
X200652Y63694D01*
X200625Y63713D01*
X200600Y63734D01*
X200573Y63755D01*
X200549Y63779D01*
X200524Y63801D01*
X200229Y64096D01*
X200206Y64122D01*
X200183Y64145D01*
X200163Y64171D01*
X200141Y64197D01*
X200122Y64224D01*
X200102Y64251D01*
X199869Y64599D01*
X199853Y64628D01*
X199834Y64655D01*
X199819Y64685D01*
X199803Y64714D01*
X199790Y64745D01*
X199775Y64775D01*
X199615Y65161D01*
X199604Y65193D01*
X199592Y65224D01*
X199583Y65256D01*
X199572Y65288D01*
X199566Y65320D01*
X199557Y65353D01*
X199475Y65763D01*
X199471Y65796D01*
X199464Y65829D01*
X199462Y65862D01*
X199458Y65895D01*
Y65928D01*
X199456Y65962D01*
Y66171D01*
Y66171D01*
Y71421D01*
Y71630D01*
X199458Y71664D01*
Y71697D01*
X199462Y71730D01*
X199464Y71763D01*
X199471Y71796D01*
X199475Y71829D01*
X199557Y72239D01*
X199566Y72272D01*
X199572Y72304D01*
X199583Y72336D01*
X199592Y72368D01*
X199604Y72399D01*
X199615Y72430D01*
X199775Y72817D01*
X199790Y72847D01*
X199803Y72878D01*
X199819Y72907D01*
X199834Y72937D01*
X199853Y72964D01*
X199869Y72993D01*
X200102Y73341D01*
X200122Y73368D01*
X200141Y73395D01*
X200163Y73420D01*
X200183Y73447D01*
X200207Y73471D01*
X200229Y73496D01*
X200524Y73791D01*
X200550Y73814D01*
X200573Y73837D01*
X200599Y73857D01*
X200625Y73879D01*
X200652Y73898D01*
X200679Y73918D01*
X201027Y74151D01*
X201056Y74167D01*
X201083Y74186D01*
X201113Y74201D01*
X201142Y74217D01*
X201173Y74230D01*
X201203Y74245D01*
X201590Y74405D01*
X201621Y74416D01*
X201652Y74429D01*
X201684Y74437D01*
X201716Y74448D01*
X201748Y74454D01*
X201780Y74463D01*
X202191Y74545D01*
X202224Y74549D01*
X202257Y74556D01*
X202290Y74558D01*
X202323Y74562D01*
X202356D01*
X202390Y74564D01*
X213342D01*
X213475Y74556D01*
X213605Y74530D01*
X213731Y74487D01*
X213851Y74428D01*
X213962Y74354D01*
X214062Y74266D01*
X214150Y74166D01*
X214224Y74055D01*
X214283Y73936D01*
X214325Y73809D01*
X214351Y73679D01*
X214360Y73552D01*
X215065Y74263D01*
X215067Y74264D01*
X215068Y74266D01*
X215117Y74309D01*
X215165Y74351D01*
X215166Y74352D01*
X215168Y74354D01*
X215222Y74390D01*
X215275Y74426D01*
X215277Y74427D01*
X215279Y74428D01*
X215336Y74456D01*
X215395Y74485D01*
X215396Y74486D01*
X215398Y74487D01*
X215459Y74507D01*
X215520Y74528D01*
X215522Y74529D01*
X215524Y74530D01*
X215590Y74543D01*
X215651Y74555D01*
X215653Y74555D01*
X215655Y74556D01*
X215724Y74560D01*
X215784Y74564D01*
X215786Y74564D01*
X215788Y74564D01*
X222428D01*
X222462Y74562D01*
D02*
G37*
%LPC*%
G36*
X210057Y279680D02*
X210009Y279631D01*
X210061Y279579D01*
X210060Y279584D01*
X210056Y279650D01*
X210056Y279654D01*
X210056Y279658D01*
X210057Y279680D01*
D02*
G37*
G36*
Y68822D02*
X210009Y68773D01*
X210061Y68721D01*
X210060Y68726D01*
X210056Y68792D01*
X210056Y68796D01*
X210056Y68800D01*
X210057Y68822D01*
D02*
G37*
%LPD*%
D25*
X135456Y242316D02*
D03*
X112956D02*
D03*
D26*
X124206D02*
D03*
D27*
X169218Y327580D02*
D03*
X80718D02*
D03*
D28*
X106218Y298580D02*
D03*
X118718D02*
D03*
X131218D02*
D03*
X143718D02*
D03*
D29*
X84708Y282448D02*
D03*
X68708D02*
D03*
X164720Y282702D02*
D03*
X180720D02*
D03*
D30*
X228012Y188214D02*
D03*
Y251714D02*
D03*
X21635Y251206D02*
D03*
Y187706D02*
D03*
Y161798D02*
D03*
Y98298D02*
D03*
X228012Y162306D02*
D03*
Y98806D02*
D03*
D31*
X199012Y226214D02*
D03*
Y213714D02*
D03*
X50635Y213206D02*
D03*
Y225706D02*
D03*
Y123798D02*
D03*
Y136298D02*
D03*
X199012Y124306D02*
D03*
Y136806D02*
D03*
D32*
X125222Y50546D02*
D03*
D33*
X94722Y68796D02*
D03*
X155722D02*
D03*
X94722Y32296D02*
D03*
X155722D02*
D03*
D34*
X220000Y320000D02*
D03*
X30000D02*
D03*
X30000Y30000D02*
D03*
X220000Y30000D02*
D03*
D35*
X93746Y149606D02*
D03*
X152146D02*
D03*
X102298Y128959D02*
D03*
D36*
X143594Y170254D02*
D03*
M02*
