G04*
G04 #@! TF.GenerationSoftware,Altium Limited,Altium Designer,24.9.1 (31)*
G04*
G04 Layer_Physical_Order=2*
G04 Layer_Color=16711680*
%FSLAX44Y44*%
%MOMM*%
G71*
G04*
G04 #@! TF.SameCoordinates,2E7CC4C1-43FC-4399-9980-9985B1710071*
G04*
G04*
G04 #@! TF.FilePolarity,Positive*
G04*
G01*
G75*
%ADD16C,0.5000*%
%ADD17C,0.3000*%
%ADD39C,0.6000*%
%ADD42C,5.0000*%
%ADD43C,1.1000*%
%ADD44R,1.1000X1.1000*%
%ADD45C,0.4000*%
G36*
X229436Y347299D02*
X233701Y346005D01*
X237631Y343904D01*
X241076Y341077D01*
X243903Y337632D01*
X246003Y333702D01*
X247297Y329438D01*
X247725Y325092D01*
X247707Y325003D01*
Y25000D01*
X247725Y24911D01*
X247297Y20565D01*
X246003Y16301D01*
X243903Y12370D01*
X241076Y8926D01*
X237631Y6098D01*
X233701Y3998D01*
X229436Y2704D01*
X225091Y2276D01*
X225001Y2294D01*
X25000D01*
X24911Y2276D01*
X20565Y2704D01*
X16301Y3998D01*
X12371Y6098D01*
X8926Y8926D01*
X6099Y12370D01*
X3998Y16301D01*
X2704Y20565D01*
X2276Y24911D01*
X2294Y25000D01*
Y325003D01*
X2276Y325092D01*
X2704Y329438D01*
X3998Y333702D01*
X6099Y337632D01*
X8926Y341077D01*
X12371Y343904D01*
X16301Y346005D01*
X20565Y347299D01*
X24911Y347727D01*
X25000Y347709D01*
X225001D01*
X225091Y347727D01*
X229436Y347299D01*
D02*
G37*
%LPC*%
G36*
X132268Y319476D02*
X130876D01*
X129589Y318943D01*
X128605Y317959D01*
X128072Y316672D01*
Y315280D01*
X126082Y313447D01*
X120633D01*
X119568Y313888D01*
X118176D01*
X116889Y313355D01*
X115905Y312371D01*
X115372Y311084D01*
Y309692D01*
X115905Y308405D01*
X116889Y307421D01*
X118176Y306888D01*
X119568D01*
X120633Y307329D01*
X173739D01*
X176379Y304690D01*
X175406Y302343D01*
X59944Y302343D01*
X58987Y301947D01*
X31809Y274769D01*
X31413Y273812D01*
Y180594D01*
X31809Y179637D01*
X72957Y138489D01*
X73914Y138093D01*
X97536Y138093D01*
X98493Y138489D01*
X104081Y144077D01*
X104477Y145034D01*
Y155448D01*
X104081Y156405D01*
X98239Y162247D01*
X97282Y162643D01*
X85650D01*
X54185Y194108D01*
Y264108D01*
X70410Y280333D01*
X184404D01*
X185361Y280729D01*
X188155Y283523D01*
X188551Y284480D01*
Y289199D01*
X190898Y290171D01*
X203831Y277237D01*
X203831Y277237D01*
X204823Y276574D01*
X205994Y276341D01*
X205994Y276341D01*
X221999D01*
X223718Y274622D01*
X223443Y274220D01*
X222077Y272733D01*
X221805Y272846D01*
X221720Y272903D01*
X221620Y272922D01*
X220790Y273266D01*
X219398D01*
X218809Y273022D01*
X218208Y272903D01*
X216720Y271908D01*
X215725Y270419D01*
X215376Y268664D01*
Y236850D01*
X180471Y201946D01*
X158503D01*
X157226Y202200D01*
X155470Y201851D01*
X153982Y200856D01*
X152987Y199368D01*
X152638Y197612D01*
X152987Y195856D01*
X153982Y194368D01*
X154236Y194114D01*
X155724Y193119D01*
X157480Y192770D01*
X182372D01*
X184128Y193119D01*
X185616Y194114D01*
X223208Y231706D01*
X224203Y233194D01*
X224552Y234950D01*
Y268664D01*
X224203Y270419D01*
X223950Y270798D01*
X225923Y272418D01*
X230367Y267973D01*
Y233931D01*
X169167Y172731D01*
X151094D01*
Y177754D01*
X136094D01*
Y162754D01*
X151094D01*
Y166613D01*
X167097D01*
X168069Y164267D01*
X158080Y154278D01*
X156751Y155608D01*
X155041Y156595D01*
X153133Y157106D01*
X151159D01*
X149251Y156595D01*
X147541Y155608D01*
X146145Y154211D01*
X145157Y152501D01*
X144646Y150593D01*
Y148619D01*
X145157Y146711D01*
X146145Y145001D01*
X147541Y143604D01*
X149251Y142617D01*
X151159Y142106D01*
X153133D01*
X155041Y142617D01*
X156751Y143604D01*
X158147Y145001D01*
X159135Y146711D01*
X159457Y147913D01*
X160182Y148057D01*
X161174Y148720D01*
X240415Y227961D01*
X241078Y228953D01*
X241311Y230124D01*
Y271780D01*
X241311Y271780D01*
X241078Y272950D01*
X240415Y273943D01*
X240415Y273943D01*
X227715Y286643D01*
X226723Y287306D01*
X225552Y287539D01*
X225552Y287539D01*
X210055D01*
X179455Y318139D01*
X178463Y318802D01*
X177292Y319035D01*
X177292Y319035D01*
X133333D01*
X132268Y319476D01*
D02*
G37*
G36*
X177038Y276181D02*
X139700D01*
X139297Y276014D01*
X138875Y275900D01*
X132941Y271336D01*
X130842Y271240D01*
X130805Y271251D01*
X129789Y271667D01*
X126433Y275023D01*
X125476Y275419D01*
X72136D01*
X71179Y275023D01*
X63559Y267403D01*
X63163Y266446D01*
Y238558D01*
X58479Y233875D01*
X58083Y232918D01*
X58083Y221996D01*
X58479Y221039D01*
X65083Y214435D01*
X70417Y209101D01*
X71374Y208705D01*
X124460D01*
X125417Y209101D01*
X129664Y213348D01*
X129849Y213410D01*
X132033Y213333D01*
X132660Y213125D01*
X135281Y209294D01*
X135391Y209222D01*
X135441Y209101D01*
X135812Y208948D01*
X136149Y208728D01*
X136277Y208755D01*
X136398Y208705D01*
X171196D01*
X172153Y209101D01*
X199839Y236787D01*
X200235Y237744D01*
Y252372D01*
X200040Y252842D01*
X199852Y253315D01*
X178008Y275771D01*
X177999Y275775D01*
X177995Y275785D01*
X177525Y275979D01*
X177057Y276181D01*
X177047Y276177D01*
X177038Y276181D01*
D02*
G37*
G36*
X141478Y72912D02*
X141478Y72912D01*
X82042D01*
X80481Y72602D01*
X79158Y71718D01*
X78274Y70395D01*
X77964Y68834D01*
X78274Y67273D01*
X79158Y65950D01*
X80481Y65066D01*
X82042Y64756D01*
X139789D01*
X166026Y38518D01*
X167349Y37634D01*
X168910Y37324D01*
X170471Y37634D01*
X171794Y38518D01*
X172678Y39841D01*
X172988Y41402D01*
X172678Y42963D01*
X171794Y44286D01*
X144362Y71718D01*
X143039Y72602D01*
X142780Y72653D01*
X141478Y72912D01*
D02*
G37*
%LPD*%
G36*
X149063Y172387D02*
X149154Y172132D01*
X149305Y171907D01*
X149517Y171712D01*
X149790Y171547D01*
X150124Y171412D01*
X150518Y171307D01*
X150972Y171232D01*
X151487Y171187D01*
X152063Y171172D01*
Y168172D01*
X151487Y168157D01*
X150972Y168112D01*
X150518Y168037D01*
X150124Y167932D01*
X149790Y167797D01*
X149517Y167632D01*
X149305Y167437D01*
X149154Y167212D01*
X149063Y166957D01*
X149032Y166672D01*
Y172672D01*
X149063Y172387D01*
D02*
G37*
G36*
X156841Y152506D02*
X156920Y152480D01*
X157040Y152458D01*
X157201Y152438D01*
X157643Y152407D01*
X159011Y152383D01*
Y149383D01*
X158752Y149380D01*
X158135Y149337D01*
X157983Y149311D01*
X157857Y149280D01*
X157759Y149242D01*
X157686Y149199D01*
X157641Y149150D01*
X157622Y149096D01*
X156801Y152535D01*
X156841Y152506D01*
D02*
G37*
G36*
X187198Y292608D02*
Y284480D01*
X184404Y281686D01*
X69850D01*
X52832Y264668D01*
Y193548D01*
X85090Y161290D01*
X97282D01*
X103124Y155448D01*
Y145034D01*
X97536Y139446D01*
X73914Y139446D01*
X32766Y180594D01*
Y273812D01*
X59944Y300990D01*
X178816Y300990D01*
X187198Y292608D01*
D02*
G37*
G36*
X198882Y252372D02*
Y237744D01*
X171196Y210058D01*
X136398D01*
X133096Y214884D01*
Y269748D01*
X139700Y274828D01*
X177038D01*
X198882Y252372D01*
D02*
G37*
G36*
X129286Y270256D02*
Y214884D01*
X124460Y210058D01*
X71374D01*
X66040Y215392D01*
X59436Y221996D01*
X59436Y232918D01*
X64516Y237998D01*
Y266446D01*
X72136Y274066D01*
X125476D01*
X129286Y270256D01*
D02*
G37*
D16*
X82042Y68834D02*
X141478D01*
X168910Y41402D01*
D17*
X131572Y315976D02*
X177292D01*
X208788Y284480D01*
X118872Y310388D02*
X175006D01*
X205994Y279400D01*
X152146Y149606D02*
X153423Y150883D01*
X159011D01*
X238252Y230124D01*
Y271780D01*
X225552Y284480D02*
X238252Y271780D01*
X223266Y279400D02*
X233426Y269240D01*
X205994Y279400D02*
X223266D01*
X208788Y284480D02*
X225552D01*
X233426Y232664D02*
Y269240D01*
X143594Y170254D02*
X144175Y169672D01*
X170434D01*
X233426Y232664D01*
D39*
X219964Y234950D02*
Y268664D01*
X182372Y197358D02*
X219964Y234950D01*
X157480Y197358D02*
X182372D01*
X157226Y197612D02*
X157480Y197358D01*
D42*
X220000Y320000D02*
D03*
X30000D02*
D03*
X30000Y30000D02*
D03*
X220000Y30000D02*
D03*
D43*
X93746Y149606D02*
D03*
X152146D02*
D03*
X102298Y128959D02*
D03*
D44*
X143594Y170254D02*
D03*
D45*
X141478Y287020D02*
D03*
X148844D02*
D03*
X131572Y315976D02*
D03*
X220094Y269766D02*
D03*
X65278Y291084D02*
D03*
X72136D02*
D03*
X184404Y291338D02*
D03*
X177546D02*
D03*
X157226Y197612D02*
D03*
X82042Y68834D02*
D03*
X72226Y270254D02*
D03*
X82132Y270000D02*
D03*
X93562Y270254D02*
D03*
X104738Y270508D02*
D03*
X196342Y248158D02*
D03*
X196596Y239014D02*
D03*
X184658Y249428D02*
D03*
X184912Y240284D02*
D03*
X184404Y258826D02*
D03*
X147419Y214805D02*
D03*
X159103Y215059D02*
D03*
X150213Y229029D02*
D03*
X161643Y229283D02*
D03*
X173327Y229537D02*
D03*
X149959Y238173D02*
D03*
X161389Y238427D02*
D03*
X173073Y238681D02*
D03*
X149451Y248587D02*
D03*
X160881Y248841D02*
D03*
X149197Y258239D02*
D03*
X160627Y258493D02*
D03*
X172311Y258747D02*
D03*
X172212Y267716D02*
D03*
X160528Y267462D02*
D03*
X149098Y267208D02*
D03*
X104878Y216899D02*
D03*
X93702Y216645D02*
D03*
X82272Y216391D02*
D03*
X72366Y216645D02*
D03*
X72390Y240792D02*
D03*
X82296Y240538D02*
D03*
X93726Y240792D02*
D03*
X104902Y241046D02*
D03*
X72390Y250698D02*
D03*
X82296Y250444D02*
D03*
X93726Y250698D02*
D03*
X104902Y250952D02*
D03*
Y261112D02*
D03*
X93726Y260858D02*
D03*
X82296Y260604D02*
D03*
X72390Y260858D02*
D03*
X105918Y231394D02*
D03*
X94742Y231140D02*
D03*
X83312Y230886D02*
D03*
X73406Y231140D02*
D03*
X62230Y230886D02*
D03*
X105918Y226314D02*
D03*
X94742Y226060D02*
D03*
X83312Y225806D02*
D03*
X73406Y226060D02*
D03*
X62230Y225806D02*
D03*
X118872Y310388D02*
D03*
X168910Y41402D02*
D03*
M02*
