G04*
G04 #@! TF.GenerationSoftware,Altium Limited,Altium Designer,24.9.1 (31)*
G04*
G04 Layer_Color=8421504*
%FSLAX44Y44*%
%MOMM*%
G71*
G04*
G04 #@! TF.SameCoordinates,2E7CC4C1-43FC-4399-9980-9985B1710071*
G04*
G04*
G04 #@! TF.FilePolarity,Positive*
G04*
G01*
G75*
%ADD18R,3.0400X5.8400*%
%ADD19R,0.6000X0.8000*%
G04:AMPARAMS|DCode=20|XSize=0.95mm|YSize=0.85mm|CornerRadius=0.2125mm|HoleSize=0mm|Usage=FLASHONLY|Rotation=270.000|XOffset=0mm|YOffset=0mm|HoleType=Round|Shape=RoundedRectangle|*
%AMROUNDEDRECTD20*
21,1,0.9500,0.4250,0,0,270.0*
21,1,0.5250,0.8500,0,0,270.0*
1,1,0.4250,-0.2125,-0.2625*
1,1,0.4250,-0.2125,0.2625*
1,1,0.4250,0.2125,0.2625*
1,1,0.4250,0.2125,-0.2625*
%
%ADD20ROUNDEDRECTD20*%
%ADD21R,2.1000X3.0000*%
%ADD22R,0.8000X1.6000*%
%ADD23R,3.0000X2.1000*%
%ADD24R,1.6000X0.8000*%
G36*
X128706Y243816D02*
X119706D01*
Y255316D01*
X128706D01*
Y243816D01*
D02*
G37*
G36*
X137206Y229316D02*
X133206D01*
Y255316D01*
X137206D01*
Y229316D01*
D02*
G37*
G36*
X128706D02*
X119706D01*
Y240816D01*
X128706D01*
Y229316D01*
D02*
G37*
G36*
X115206D02*
X111206D01*
Y255316D01*
X115206D01*
Y229316D01*
D02*
G37*
D18*
X125225Y50546D02*
D03*
D19*
X155722Y57545D02*
D03*
Y68744D02*
D03*
Y79935D02*
D03*
X94722Y57545D02*
D03*
Y68744D02*
D03*
Y79935D02*
D03*
Y43546D02*
D03*
Y32346D02*
D03*
Y21146D02*
D03*
X155722Y43546D02*
D03*
Y32346D02*
D03*
Y21146D02*
D03*
D20*
X180720Y282702D02*
D03*
X164720D02*
D03*
X68708Y282448D02*
D03*
X84708D02*
D03*
D21*
X169218Y327580D02*
D03*
X80718D02*
D03*
D22*
X106218Y298580D02*
D03*
X118718D02*
D03*
X131218D02*
D03*
X143718D02*
D03*
D23*
X228012Y188214D02*
D03*
Y251714D02*
D03*
X21635Y251206D02*
D03*
Y187706D02*
D03*
Y161798D02*
D03*
Y98298D02*
D03*
X228012Y162306D02*
D03*
Y98806D02*
D03*
D24*
X199012Y226214D02*
D03*
Y213714D02*
D03*
X50635Y213206D02*
D03*
Y225706D02*
D03*
Y123798D02*
D03*
Y136298D02*
D03*
X199012Y124306D02*
D03*
Y136806D02*
D03*
M02*
