G04*
G04 #@! TF.GenerationSoftware,Altium Limited,Altium Designer,24.9.1 (31)*
G04*
G04 Layer_Physical_Order=1*
G04 Layer_Color=255*
%FSLAX44Y44*%
%MOMM*%
G71*
G04*
G04 #@! TF.SameCoordinates,FEB28A8C-77E3-45AE-8D42-727CA5368162*
G04*
G04*
G04 #@! TF.FilePolarity,Positive*
G04*
G01*
G75*
%ADD16C,0.5000*%
%ADD17C,0.3000*%
%ADD20R,2.1000X3.0000*%
%ADD21R,0.8000X1.6000*%
G04:AMPARAMS|DCode=22|XSize=0.95mm|YSize=0.85mm|CornerRadius=0.2125mm|HoleSize=0mm|Usage=FLASHONLY|Rotation=90.000|XOffset=0mm|YOffset=0mm|HoleType=Round|Shape=RoundedRectangle|*
%AMROUNDEDRECTD22*
21,1,0.9500,0.4250,0,0,90.0*
21,1,0.5250,0.8500,0,0,90.0*
1,1,0.4250,0.2125,0.2625*
1,1,0.4250,0.2125,-0.2625*
1,1,0.4250,-0.2125,-0.2625*
1,1,0.4250,-0.2125,0.2625*
%
%ADD22ROUNDEDRECTD22*%
%ADD23R,3.0000X2.1000*%
%ADD24R,1.6000X0.8000*%
%ADD32R,4.0000X6.8000*%
%ADD33R,0.7000X3.1500*%
%ADD37R,0.5500X5.5000*%
%ADD38R,1.0000X5.5000*%
%ADD39C,0.6000*%
%ADD40C,0.8000*%
%ADD41C,1.0000*%
%ADD42C,5.0000*%
%ADD43C,1.1000*%
%ADD44R,1.1000X1.1000*%
%ADD45C,0.4000*%
G36*
X229436Y347299D02*
X233701Y346005D01*
X237631Y343904D01*
X241076Y341077D01*
X243903Y337632D01*
X246003Y333702D01*
X247297Y329438D01*
X247725Y325092D01*
X247707Y325003D01*
Y25000D01*
X247725Y24911D01*
X247297Y20565D01*
X246003Y16301D01*
X243903Y12370D01*
X241076Y8926D01*
X237631Y6098D01*
X233701Y3998D01*
X229436Y2704D01*
X225091Y2276D01*
X225001Y2294D01*
X25000D01*
X24911Y2276D01*
X20565Y2704D01*
X16301Y3998D01*
X12371Y6098D01*
X8926Y8926D01*
X6099Y12370D01*
X3998Y16301D01*
X2704Y20565D01*
X2276Y24911D01*
X2294Y25000D01*
Y325003D01*
X2276Y325092D01*
X2704Y329438D01*
X3998Y333702D01*
X6099Y337632D01*
X8926Y341077D01*
X12371Y343904D01*
X16301Y346005D01*
X20565Y347299D01*
X24911Y347727D01*
X25000Y347709D01*
X225001D01*
X225091Y347727D01*
X229436Y347299D01*
D02*
G37*
%LPC*%
G36*
X132268Y319476D02*
X130876D01*
X129589Y318943D01*
X128605Y317959D01*
X128072Y316672D01*
Y315280D01*
X128336Y314642D01*
Y309876D01*
X126540Y308080D01*
X124218Y308080D01*
X122372Y309692D01*
Y311084D01*
X121839Y312371D01*
X120855Y313355D01*
X119568Y313888D01*
X118176D01*
X116889Y313355D01*
X115905Y312371D01*
X115372Y311084D01*
Y309692D01*
X113290Y308080D01*
X113218D01*
Y289080D01*
X115659D01*
Y285253D01*
X90493D01*
X90248Y286487D01*
X89446Y287687D01*
X88247Y288488D01*
X86833Y288769D01*
X82583D01*
X81169Y288488D01*
X79970Y287687D01*
X77218Y288138D01*
X76791Y288452D01*
Y291846D01*
X76395Y292803D01*
X74617Y294581D01*
X73660Y294977D01*
X64008Y294977D01*
X63051Y294581D01*
X61273Y292803D01*
X60877Y291846D01*
X60877Y278638D01*
X61273Y277681D01*
X63559Y275395D01*
X64516Y274999D01*
X68091D01*
X69063Y272652D01*
X63813Y267403D01*
X63417Y266446D01*
Y238558D01*
X59130Y234271D01*
X42164D01*
X41207Y233875D01*
X39937Y232605D01*
X39541Y231648D01*
X39541Y223266D01*
X39937Y222309D01*
X41040Y221207D01*
X41135Y218706D01*
X41135Y218706D01*
Y207706D01*
X45934D01*
X46016Y207609D01*
X46179Y207314D01*
X46343Y206873D01*
X46453Y206422D01*
Y203721D01*
X46802Y201965D01*
X47797Y200476D01*
X54160Y194114D01*
X55648Y193119D01*
X57404Y192770D01*
X156972D01*
X158249Y193024D01*
X160782D01*
X162538Y193373D01*
X164026Y194368D01*
X185591Y215932D01*
X188131Y214880D01*
Y211074D01*
X188527Y210117D01*
X189512Y208983D01*
Y208214D01*
X191516Y207689D01*
X191835Y207689D01*
X216916Y207689D01*
X217873Y208085D01*
X223715Y213927D01*
X224111Y214884D01*
Y228854D01*
X223715Y229811D01*
X194660Y258865D01*
X197005Y261211D01*
X198221Y263030D01*
X198648Y265176D01*
Y272339D01*
X198648Y272339D01*
X200713Y273792D01*
X200854Y273764D01*
X200971Y273646D01*
X201358Y273486D01*
X201524D01*
X201662Y273393D01*
X202073Y273312D01*
X202236Y273344D01*
X202390Y273280D01*
X213296Y273280D01*
X215506Y271499D01*
Y269766D01*
X215855Y268010D01*
X216850Y266522D01*
X218338Y265527D01*
X220094Y265178D01*
X221850Y265527D01*
X223338Y266522D01*
X224333Y268010D01*
X224682Y269766D01*
Y273563D01*
X224771Y274051D01*
X224843Y274352D01*
X225018Y274526D01*
X225081Y274680D01*
X225220Y274772D01*
X225452Y275121D01*
X225485Y275284D01*
X225602Y275401D01*
X225762Y275788D01*
Y275954D01*
X225855Y276092D01*
X225936Y276503D01*
X225904Y276666D01*
X225968Y276820D01*
Y282488D01*
X225904Y282642D01*
X225936Y282805D01*
X225855Y283216D01*
X225762Y283354D01*
Y283520D01*
X225602Y283907D01*
X225485Y284025D01*
X225452Y284188D01*
X225219Y284536D01*
X225081Y284628D01*
X225018Y284782D01*
X224722Y285078D01*
X224568Y285141D01*
X224476Y285280D01*
X224128Y285512D01*
X223964Y285544D01*
X223847Y285662D01*
X223460Y285822D01*
X223294D01*
X223156Y285915D01*
X222745Y285996D01*
X222582Y285964D01*
X222428Y286028D01*
X215788D01*
X215785Y286026D01*
X215782Y286028D01*
X214490Y285552D01*
X213342Y286028D01*
X202390D01*
X202236Y285964D01*
X202073Y285996D01*
X201662Y285915D01*
X201524Y285822D01*
X201358D01*
X200971Y285662D01*
X200854Y285545D01*
X200690Y285512D01*
X200342Y285280D01*
X200331Y285262D01*
X197726D01*
X195580Y284835D01*
X193761Y283619D01*
X191599Y281457D01*
X189059Y282509D01*
X189059Y292100D01*
X188663Y293057D01*
X186885Y294835D01*
X185928Y295231D01*
X176276Y295231D01*
X175319Y294835D01*
X173541Y293057D01*
X173145Y292100D01*
X173145Y278892D01*
X172565Y278815D01*
X172120Y279092D01*
X170541Y281114D01*
Y285327D01*
X170260Y286741D01*
X169459Y287941D01*
X168259Y288742D01*
X166845Y289023D01*
X162595D01*
X161181Y288742D01*
X159981Y287941D01*
X159180Y286741D01*
X158899Y285327D01*
Y284491D01*
X155865D01*
X154365Y286619D01*
X154261Y287031D01*
X154261Y303784D01*
X153865Y304741D01*
X149801Y308805D01*
X148844Y309201D01*
X140885D01*
X140489Y309037D01*
X140073Y308930D01*
X139183Y308262D01*
X138184Y308188D01*
X136865Y308131D01*
X136587Y308198D01*
X134454Y310108D01*
Y313908D01*
X134539Y313993D01*
X135072Y315280D01*
Y316672D01*
X134539Y317959D01*
X133555Y318943D01*
X132268Y319476D01*
D02*
G37*
G36*
X151094Y177754D02*
X136094D01*
Y162754D01*
X151094D01*
Y177754D01*
D02*
G37*
G36*
X153133Y157106D02*
X151159D01*
X149251Y156595D01*
X147541Y155608D01*
X146145Y154211D01*
X145157Y152501D01*
X144646Y150593D01*
Y148619D01*
X145157Y146711D01*
X146145Y145001D01*
X147541Y143604D01*
X149251Y142617D01*
X151159Y142106D01*
X153133D01*
X155041Y142617D01*
X156751Y143604D01*
X158147Y145001D01*
X159135Y146711D01*
X159646Y148619D01*
Y150593D01*
X159135Y152501D01*
X158147Y154211D01*
X156751Y155608D01*
X155041Y156595D01*
X153133Y157106D01*
D02*
G37*
G36*
X94733D02*
X92759D01*
X90851Y156595D01*
X89141Y155608D01*
X87745Y154211D01*
X86757Y152501D01*
X86246Y150593D01*
Y148619D01*
X86757Y146711D01*
X87745Y145001D01*
X89141Y143604D01*
X90851Y142617D01*
X92759Y142106D01*
X94733D01*
X96641Y142617D01*
X98351Y143604D01*
X99747Y145001D01*
X100735Y146711D01*
X101246Y148619D01*
Y150593D01*
X100735Y152501D01*
X99747Y154211D01*
X98351Y155608D01*
X96641Y156595D01*
X94733Y157106D01*
D02*
G37*
G36*
X208512Y142306D02*
X189512D01*
Y141421D01*
X189373Y141394D01*
X165000D01*
X163244Y141045D01*
X161756Y140050D01*
X144403Y122698D01*
X71242D01*
X66898Y127042D01*
X65410Y128037D01*
X63654Y128386D01*
X60444D01*
X60135Y130798D01*
X60135Y130798D01*
X60135Y130798D01*
Y141798D01*
X51177D01*
X50635Y141906D01*
X38452D01*
X36306Y141479D01*
X34487Y140263D01*
X29800Y135577D01*
X28585Y133758D01*
X28158Y131612D01*
Y121243D01*
X28585Y119097D01*
X29800Y117277D01*
X62210Y84867D01*
Y35420D01*
X62637Y33274D01*
X63853Y31455D01*
X68539Y26769D01*
X70358Y25553D01*
X72504Y25126D01*
X80402D01*
X89722Y15806D01*
Y15046D01*
X99722D01*
Y15767D01*
X99763Y15807D01*
X100159Y16764D01*
Y47498D01*
X99763Y48455D01*
X99722Y48495D01*
X99722Y49546D01*
Y51546D01*
X99722Y52086D01*
Y86046D01*
X89722D01*
Y73339D01*
X89660Y73282D01*
X89415Y73134D01*
X89041Y72981D01*
X88642Y72874D01*
X82233D01*
X82042Y72912D01*
X80481Y72602D01*
X79158Y71718D01*
X78274Y70395D01*
X77964Y68834D01*
X78274Y67273D01*
X79158Y65950D01*
X79196Y65912D01*
X79196Y65912D01*
X80519Y65028D01*
X82080Y64718D01*
X82080Y64718D01*
X87375D01*
X89722Y62625D01*
Y52086D01*
X89722Y51546D01*
Y49546D01*
X89722Y48963D01*
X89721Y48963D01*
X77100Y36342D01*
X74827D01*
X73426Y37743D01*
Y87190D01*
X72999Y89336D01*
X71783Y91156D01*
X46988Y115951D01*
X47959Y118298D01*
X60135D01*
Y118298D01*
X62672Y118291D01*
X66098Y114866D01*
X67586Y113871D01*
X69342Y113522D01*
X146304D01*
X148060Y113871D01*
X149548Y114866D01*
X166901Y132218D01*
X182574D01*
X182824Y129678D01*
X181864Y129487D01*
X180045Y128271D01*
X175359Y123585D01*
X174143Y121766D01*
X173716Y119620D01*
Y78404D01*
X173689Y78249D01*
X173357Y77255D01*
X173086Y76750D01*
X172069Y76367D01*
X170049Y76213D01*
X160722Y85540D01*
Y86046D01*
X160215D01*
X159961Y86301D01*
X159004Y86697D01*
X152146D01*
X151810Y86558D01*
X151450Y86504D01*
X150180Y85742D01*
X150180Y85742D01*
X150078Y85604D01*
X149919Y85539D01*
X149780Y85202D01*
X149563Y84910D01*
X149589Y84740D01*
X149523Y84582D01*
X149662Y84246D01*
X149716Y83886D01*
X149777Y83841D01*
Y54102D01*
X150173Y53145D01*
X150722Y52597D01*
X150722Y51546D01*
Y49546D01*
X150722Y49006D01*
Y15046D01*
X160722D01*
Y37324D01*
X168910D01*
X170471Y37634D01*
X171794Y38518D01*
X172678Y39841D01*
X172988Y41402D01*
X172678Y42963D01*
X171794Y44286D01*
X170471Y45170D01*
X168910Y45480D01*
X160722D01*
Y49126D01*
X160722Y49547D01*
X161051Y51950D01*
X172290Y63188D01*
X200331D01*
X200342Y63170D01*
X200690Y62938D01*
X200854Y62906D01*
X200971Y62788D01*
X201358Y62628D01*
X201524D01*
X201662Y62535D01*
X202073Y62454D01*
X202236Y62486D01*
X202390Y62422D01*
X213296Y62422D01*
X214542Y62863D01*
X215782Y62422D01*
X215784Y62424D01*
X215788Y62422D01*
X222428D01*
X222582Y62486D01*
X222745Y62454D01*
X223156Y62535D01*
X223294Y62628D01*
X223460D01*
X223847Y62788D01*
X223964Y62905D01*
X224128Y62938D01*
X224476Y63170D01*
X224568Y63309D01*
X224722Y63372D01*
X225018Y63668D01*
X225081Y63822D01*
X225220Y63914D01*
X225452Y64262D01*
X225485Y64426D01*
X225602Y64543D01*
X225762Y64930D01*
Y65096D01*
X225855Y65234D01*
X225936Y65645D01*
X225904Y65808D01*
X225968Y65962D01*
Y71630D01*
X225904Y71784D01*
X225936Y71947D01*
X225855Y72358D01*
X225762Y72496D01*
Y72662D01*
X225602Y73049D01*
X225485Y73166D01*
X225452Y73330D01*
X225219Y73678D01*
X225081Y73770D01*
X225018Y73924D01*
X224722Y74220D01*
X224682Y74236D01*
Y76495D01*
X224333Y78251D01*
X223338Y79740D01*
X219824Y83254D01*
X218335Y84249D01*
X216579Y84598D01*
X210434D01*
X206010Y89023D01*
Y104271D01*
X221938Y120200D01*
X222933Y121688D01*
X223282Y123444D01*
Y133291D01*
X222933Y135047D01*
X221938Y136536D01*
X218424Y140050D01*
X216935Y141045D01*
X215179Y141394D01*
X208650D01*
X208512Y141421D01*
Y142306D01*
D02*
G37*
G36*
X225000Y41556D02*
X223303Y41333D01*
X221722Y40678D01*
X220364Y39636D01*
X215364Y34636D01*
X214322Y33278D01*
X213667Y31697D01*
X213444Y30000D01*
X213667Y28303D01*
X214322Y26722D01*
X215364Y25364D01*
X216722Y24322D01*
X218303Y23667D01*
X220000Y23444D01*
X221697Y23667D01*
X223278Y24322D01*
X224636Y25364D01*
X229636Y30364D01*
X230678Y31722D01*
X231333Y33303D01*
X231556Y35000D01*
X231333Y36697D01*
X230678Y38278D01*
X229636Y39636D01*
X228278Y40678D01*
X226697Y41333D01*
X225000Y41556D01*
D02*
G37*
G36*
X146722Y86046D02*
X103722D01*
Y15046D01*
X146722D01*
Y86046D01*
D02*
G37*
%LPD*%
G36*
X132910Y308979D02*
X132955Y308470D01*
X133030Y308020D01*
X133135Y307630D01*
X133270Y307299D01*
X133435Y307029D01*
X133630Y306819D01*
X133855Y306670D01*
X134110Y306579D01*
X134395Y306549D01*
X128395D01*
X128680Y306579D01*
X128935Y306670D01*
X129160Y306819D01*
X129355Y307029D01*
X129520Y307299D01*
X129655Y307630D01*
X129760Y308020D01*
X129835Y308470D01*
X129880Y308979D01*
X129895Y309550D01*
X132895D01*
X132910Y308979D01*
D02*
G37*
G36*
X120310D02*
X120355Y308470D01*
X120430Y308020D01*
X120535Y307630D01*
X120670Y307299D01*
X120835Y307029D01*
X121030Y306819D01*
X121255Y306670D01*
X121510Y306579D01*
X121795Y306549D01*
X115795D01*
X116080Y306579D01*
X116335Y306670D01*
X116560Y306819D01*
X116755Y307029D01*
X116920Y307299D01*
X117055Y307630D01*
X117160Y308020D01*
X117235Y308470D01*
X117280Y308979D01*
X117295Y309550D01*
X120295D01*
X120310Y308979D01*
D02*
G37*
G36*
X133933Y290611D02*
X133678Y290520D01*
X133453Y290368D01*
X133258Y290156D01*
X133093Y289883D01*
X132958Y289550D01*
X132853Y289156D01*
X132778Y288701D01*
X132733Y288186D01*
X132718Y287610D01*
X129718D01*
X129703Y288186D01*
X129658Y288701D01*
X129583Y289156D01*
X129478Y289550D01*
X129343Y289883D01*
X129178Y290156D01*
X128983Y290368D01*
X128758Y290520D01*
X128503Y290611D01*
X128218Y290641D01*
X134218D01*
X133933Y290611D01*
D02*
G37*
G36*
X121433D02*
X121178Y290520D01*
X120953Y290368D01*
X120758Y290156D01*
X120593Y289883D01*
X120458Y289550D01*
X120353Y289156D01*
X120278Y288701D01*
X120233Y288186D01*
X120218Y287610D01*
X117218D01*
X117203Y288186D01*
X117158Y288701D01*
X117083Y289156D01*
X116978Y289550D01*
X116843Y289883D01*
X116678Y290156D01*
X116483Y290368D01*
X116258Y290520D01*
X116003Y290611D01*
X115718Y290641D01*
X121718D01*
X121433Y290611D01*
D02*
G37*
G36*
X152908Y303784D02*
X152908Y286766D01*
X150876Y284734D01*
X139402D01*
X138176Y285960D01*
X138176Y305816D01*
X140885Y307848D01*
X148844D01*
X152908Y303784D01*
D02*
G37*
G36*
X88941Y284904D02*
X89029Y284650D01*
X89179Y284426D01*
X89391Y284232D01*
X89665Y284067D01*
X90002Y283933D01*
X90400Y283829D01*
X90861Y283754D01*
X91384Y283709D01*
X91969Y283694D01*
Y280694D01*
X91374Y280679D01*
X90841Y280634D01*
X90370Y280560D01*
X89962Y280455D01*
X89615Y280320D01*
X89331Y280156D01*
X89108Y279962D01*
X88948Y279738D01*
X88850Y279484D01*
X88814Y279200D01*
X88915Y285188D01*
X88941Y284904D01*
D02*
G37*
G36*
X125718Y289080D02*
X128159Y287120D01*
Y283190D01*
X128159Y283189D01*
X128392Y282019D01*
X129055Y281026D01*
X130812Y279269D01*
X130813Y279269D01*
X131805Y278606D01*
X132975Y278373D01*
X132976Y278373D01*
X136577D01*
X137082Y275833D01*
X136965Y275785D01*
X133027Y271846D01*
X131068Y271399D01*
X129172Y272537D01*
X126687Y275023D01*
X125730Y275419D01*
X92767D01*
X91355Y277959D01*
X92087Y279135D01*
X116960D01*
X116961Y279135D01*
X118131Y279368D01*
X119123Y280031D01*
X120881Y281788D01*
X120881Y281789D01*
X121544Y282781D01*
X121777Y283951D01*
X121777Y283951D01*
Y287284D01*
X123573Y289080D01*
X125718Y289080D01*
D02*
G37*
G36*
X161085Y278567D02*
X160885Y278826D01*
X160649Y279058D01*
X160378Y279263D01*
X160072Y279441D01*
X159730Y279591D01*
X159352Y279714D01*
X158940Y279809D01*
X158491Y279877D01*
X158007Y279918D01*
X157488Y279932D01*
X157459Y282932D01*
X158063Y282947D01*
X158599Y282992D01*
X159069Y283067D01*
X159472Y283172D01*
X159808Y283307D01*
X160078Y283472D01*
X160281Y283667D01*
X160417Y283892D01*
X160487Y284147D01*
X160490Y284432D01*
X161085Y278567D01*
D02*
G37*
G36*
X187706Y292100D02*
X187706Y279400D01*
X184912Y276606D01*
X176784D01*
X174498Y278892D01*
X174498Y292100D01*
X176276Y293878D01*
X185928Y293878D01*
X187706Y292100D01*
D02*
G37*
G36*
X75438Y291846D02*
X75438Y279146D01*
X72644Y276352D01*
X64516D01*
X62230Y278638D01*
X62230Y291846D01*
X64008Y293624D01*
X73660Y293624D01*
X75438Y291846D01*
D02*
G37*
G36*
X223887Y275712D02*
X223720Y275318D01*
X223574Y274858D01*
X223446Y274331D01*
X223339Y273738D01*
X223182Y272349D01*
X223104Y270694D01*
X223094Y269766D01*
X217094D01*
X217073Y270929D01*
X216901Y272885D01*
X216750Y273678D01*
X216557Y274347D01*
X216320Y274893D01*
X216041Y275316D01*
X215718Y275615D01*
X215353Y275791D01*
X214945Y275844D01*
X224073Y276038D01*
X223887Y275712D01*
D02*
G37*
G36*
X205478Y234061D02*
X204506Y231714D01*
X189512D01*
Y229802D01*
X188384D01*
X186628Y229453D01*
X185140Y228458D01*
X158882Y202200D01*
X157226D01*
X155949Y201946D01*
X59304D01*
X56039Y205211D01*
X56728Y207706D01*
X60135D01*
Y218706D01*
X62188Y219881D01*
X63702D01*
X64941Y218642D01*
X64941Y215392D01*
X65337Y214435D01*
X70671Y209101D01*
X71628Y208705D01*
X124714D01*
X125671Y209101D01*
X129023Y212454D01*
X130901Y213196D01*
X132729Y212068D01*
X135695Y209101D01*
X136652Y208705D01*
X157226D01*
X158183Y209101D01*
X185473Y236391D01*
X194269D01*
X194613Y236047D01*
X195900Y235514D01*
X197292D01*
X198579Y236047D01*
X198923Y236391D01*
X203148D01*
X205478Y234061D01*
D02*
G37*
G36*
X129540Y270256D02*
Y214884D01*
X124714Y210058D01*
X71628D01*
X66294Y215392D01*
X66294Y219202D01*
X64262Y221234D01*
X42926D01*
X40894Y223266D01*
X40894Y231648D01*
X42164Y232918D01*
X59690D01*
X64770Y237998D01*
Y266446D01*
X72390Y274066D01*
X125730D01*
X129540Y270256D01*
D02*
G37*
G36*
X222758Y228854D02*
Y214884D01*
X216916Y209042D01*
X191516Y209042D01*
X189484Y211074D01*
Y218067D01*
X192070Y219964D01*
X208026D01*
X211582Y223520D01*
Y229870D01*
X203708Y237744D01*
X184912D01*
X157226Y210058D01*
X136652D01*
X131826Y214884D01*
Y268732D01*
X137922Y274828D01*
X176784D01*
X222758Y228854D01*
D02*
G37*
G36*
X56079Y209212D02*
X55651Y209045D01*
X55274Y208768D01*
X54947Y208380D01*
X54670Y207880D01*
X54444Y207270D01*
X54268Y206549D01*
X54142Y205717D01*
X54066Y204774D01*
X54041Y203721D01*
X48041D01*
X48016Y204774D01*
X47941Y205717D01*
X47815Y206549D01*
X47639Y207270D01*
X47412Y207880D01*
X47136Y208380D01*
X46809Y208768D01*
X46431Y209045D01*
X46003Y209212D01*
X45525Y209267D01*
X56557D01*
X56079Y209212D01*
D02*
G37*
G36*
X207041Y140591D02*
X207222Y140427D01*
X207521Y140281D01*
X207941Y140155D01*
X208482Y140048D01*
X209142Y139961D01*
X210821Y139845D01*
X212981Y139806D01*
Y133806D01*
X211842Y133796D01*
X208482Y133564D01*
X207941Y133457D01*
X207521Y133331D01*
X207222Y133186D01*
X207041Y133021D01*
X206982Y132837D01*
Y140775D01*
X207041Y140591D01*
D02*
G37*
G36*
X191042Y132837D02*
X190982Y133021D01*
X190802Y133186D01*
X190502Y133331D01*
X190082Y133457D01*
X189543Y133564D01*
X188883Y133651D01*
X187202Y133767D01*
X185042Y133806D01*
Y139806D01*
X186182Y139816D01*
X189543Y140048D01*
X190082Y140155D01*
X190502Y140281D01*
X190802Y140427D01*
X190982Y140591D01*
X191042Y140775D01*
Y132837D01*
D02*
G37*
G36*
X58655Y127583D02*
X58807Y127418D01*
X59059Y127273D01*
X59412Y127147D01*
X59867Y127040D01*
X60422Y126953D01*
X61079Y126885D01*
X62695Y126808D01*
X63654Y126798D01*
Y120798D01*
X62695Y120788D01*
X60422Y120643D01*
X59867Y120556D01*
X59412Y120449D01*
X59059Y120323D01*
X58807Y120177D01*
X58655Y120013D01*
X58604Y119829D01*
Y127767D01*
X58655Y127583D01*
D02*
G37*
G36*
X205221Y116459D02*
X198178Y109416D01*
X197183Y107928D01*
X196834Y106172D01*
Y87122D01*
X197183Y85366D01*
X198178Y83878D01*
X204346Y77710D01*
X203294Y75170D01*
X202390D01*
X202236Y75106D01*
X202073Y75138D01*
X201662Y75057D01*
X201524Y74964D01*
X201358D01*
X200971Y74804D01*
X200854Y74687D01*
X200690Y74654D01*
X200439Y74486D01*
X198966Y74404D01*
X188932D01*
X188777Y74431D01*
X187783Y74763D01*
X186960Y75206D01*
X186285Y75758D01*
X185734Y76432D01*
X185291Y77255D01*
X184959Y78249D01*
X184932Y78404D01*
Y117297D01*
X186333Y118698D01*
X199012D01*
X199554Y118806D01*
X204249D01*
X205221Y116459D01*
D02*
G37*
G36*
X170975Y73373D02*
X171404Y73516D01*
X172444Y74076D01*
X172604Y74207D01*
X173324Y74796D01*
X174044Y75676D01*
X174604Y76716D01*
X175004Y77916D01*
X175244Y79276D01*
X175324Y80796D01*
X175324D01*
Y80796D01*
X183324D01*
X183404Y79276D01*
X183644Y77916D01*
X184044Y76716D01*
X184604Y75676D01*
X185324Y74796D01*
X186204Y74076D01*
X187244Y73516D01*
X188444Y73116D01*
X189804Y72876D01*
X191324Y72796D01*
X191324Y72796D01*
X191324D01*
X179324Y64796D01*
X172466Y69368D01*
Y65278D01*
X159766Y52578D01*
X152654D01*
X151130Y54102D01*
Y84328D01*
X150876Y84582D01*
X152146Y85344D01*
X159004D01*
X170975Y73373D01*
D02*
G37*
G36*
X201608Y64317D02*
X201393Y64408D01*
X201035Y64489D01*
X200534Y64561D01*
X199102Y64676D01*
X194519Y64791D01*
X193015Y64796D01*
Y72796D01*
X194519Y72801D01*
X201393Y73184D01*
X201608Y73275D01*
X201608Y64317D01*
D02*
G37*
G36*
X91283Y63796D02*
X91233Y64271D01*
X91082Y64696D01*
X90830Y65071D01*
X90478Y65396D01*
X90025Y65671D01*
X89472Y65896D01*
X88818Y66071D01*
X88063Y66196D01*
X87208Y66271D01*
X86252Y66296D01*
Y71296D01*
X87208Y71321D01*
X88063Y71396D01*
X88818Y71521D01*
X89472Y71696D01*
X90025Y71921D01*
X90478Y72196D01*
X90830Y72521D01*
X91082Y72896D01*
X91233Y73321D01*
X91283Y73796D01*
Y63796D01*
D02*
G37*
G36*
X98806Y47498D02*
Y16764D01*
X98552Y16510D01*
X90932D01*
X76314Y31128D01*
Y33642D01*
X90678Y48006D01*
X98298Y48006D01*
X98806Y47498D01*
D02*
G37*
G36*
G01X222219Y274904D02*
G01X215788D01*
G01X211074Y279654D01*
G01X215788Y284404D01*
G01X222219D01*
G02X224344Y282279I0J-2125D01*
G01Y277029D01*
G02X222219Y274904I-2125J0D01*
D02*
G37*
G36*
G01X208569Y279631D02*
G01X213296Y274904D01*
G01X202599Y274904D01*
G02X200474Y277029I0J2125D01*
G01Y282279D01*
G02X202599Y284404I2125J0D01*
G01X213342D01*
G01X208569Y279631D01*
D02*
G37*
G36*
G01X222219Y64046D02*
G01X215788D01*
G01X211074Y68796D01*
G01X215788Y73546D01*
G01X222219D01*
G02X224344Y71421I0J-2125D01*
G01Y66171D01*
G02X222219Y64046I-2125J0D01*
D02*
G37*
G36*
G01X208569Y68773D02*
G01X213296Y64046D01*
G01X202599Y64046D01*
G02X200474Y66171I0J2125D01*
G01Y71421D01*
G02X202599Y73546I2125J0D01*
G01X213342D01*
G01X208569Y68773D01*
D02*
G37*
D16*
X155722Y32296D02*
Y40402D01*
X156722Y41402D02*
X168910D01*
X155722Y40402D02*
X156722Y41402D01*
X82080Y68796D02*
X92690D01*
X82042Y68834D02*
X82080Y68796D01*
D17*
X131218Y297056D02*
X131395Y297233D01*
Y315799D02*
X131572Y315976D01*
X131395Y297233D02*
Y315799D01*
X118795Y297133D02*
Y310311D01*
X131218Y283189D02*
Y297056D01*
Y283189D02*
X132975Y281432D01*
X164212D02*
X165736Y282956D01*
X132975Y281432D02*
X164212D01*
X84962Y282194D02*
X116961D01*
X118718Y283951D02*
Y297056D01*
X84708Y282448D02*
X84962Y282194D01*
X116961D02*
X118718Y283951D01*
Y297056D02*
X118795Y297133D01*
Y310311D02*
X118872Y310388D01*
D20*
X169218Y327580D02*
D03*
X80718D02*
D03*
D21*
X106218Y298580D02*
D03*
X118718D02*
D03*
X131218D02*
D03*
X143718D02*
D03*
D22*
X84708Y282448D02*
D03*
X68708D02*
D03*
X164720Y282702D02*
D03*
X180720D02*
D03*
D23*
X228012Y188214D02*
D03*
Y251714D02*
D03*
X21635Y251206D02*
D03*
Y187706D02*
D03*
Y161798D02*
D03*
Y98298D02*
D03*
X228012Y162306D02*
D03*
Y98806D02*
D03*
D24*
X199012Y226214D02*
D03*
Y213714D02*
D03*
X50635Y213206D02*
D03*
Y225706D02*
D03*
Y123798D02*
D03*
Y136298D02*
D03*
X199012Y124306D02*
D03*
Y136806D02*
D03*
D32*
X125222Y50546D02*
D03*
D33*
X94722Y68796D02*
D03*
X155722D02*
D03*
X94722Y32296D02*
D03*
X155722D02*
D03*
D37*
X135456Y242316D02*
D03*
X112956D02*
D03*
D38*
X124206D02*
D03*
D39*
X157226Y197612D02*
X160782D01*
X188384Y225214D01*
X198012D01*
X216579Y80010D02*
X220094Y76495D01*
Y68796D02*
Y76495D01*
X201422Y87122D02*
X208534Y80010D01*
X216579D01*
X201422Y87122D02*
Y106172D01*
X218694Y123444D01*
Y133291D01*
X199012Y136806D02*
X215179D01*
X218694Y133291D01*
X146304Y118110D02*
X165000Y136806D01*
X199012D01*
X220094Y269766D02*
Y279654D01*
X156972Y197358D02*
X157226Y197612D01*
X198012Y225214D02*
X199012Y226214D01*
X57404Y197358D02*
X156972D01*
X51041Y203721D02*
X57404Y197358D01*
X51041Y203721D02*
Y212800D01*
X50635Y213206D02*
X51041Y212800D01*
X69342Y118110D02*
X146304D01*
X50635Y123798D02*
X63654D01*
X69342Y118110D01*
D40*
X179324Y68796D02*
X204724D01*
X67818Y35420D02*
Y87190D01*
X72504Y30734D02*
X94234D01*
X67818Y35420D02*
X72504Y30734D01*
X33766Y121243D02*
X67818Y87190D01*
X157772Y68796D02*
X179324D01*
X179324Y68796D01*
X184010Y124306D02*
X199012D01*
X179324Y68796D02*
Y119620D01*
X184010Y124306D01*
X149959Y241808D02*
X167386D01*
X139192D02*
X149959D01*
X167894Y240030D02*
X193040Y265176D01*
Y274968D01*
X197726Y279654D02*
X204724D01*
X193040Y274968D02*
X197726Y279654D01*
X33766Y121243D02*
Y131612D01*
X38452Y136298D01*
X50635D01*
X157734Y68834D02*
X157772Y68796D01*
D41*
X220000Y30000D02*
X225000Y35000D01*
D42*
X220000Y320000D02*
D03*
X30000D02*
D03*
X30000Y30000D02*
D03*
X220000Y30000D02*
D03*
D43*
X93746Y149606D02*
D03*
X152146D02*
D03*
X102298Y128959D02*
D03*
D44*
X143594Y170254D02*
D03*
D45*
X141478Y287020D02*
D03*
X148844D02*
D03*
X131572Y315976D02*
D03*
X220094Y269766D02*
D03*
X65278Y291084D02*
D03*
X72136D02*
D03*
X184404Y291338D02*
D03*
X177546D02*
D03*
X157226Y197612D02*
D03*
X82042Y68834D02*
D03*
X72226Y270254D02*
D03*
X82132Y270000D02*
D03*
X93562Y270254D02*
D03*
X104738Y270508D02*
D03*
X196342Y248158D02*
D03*
X196596Y239014D02*
D03*
X184658Y249428D02*
D03*
X184912Y240284D02*
D03*
X184404Y258826D02*
D03*
X147419Y214805D02*
D03*
X159103Y215059D02*
D03*
X150213Y229029D02*
D03*
X161643Y229283D02*
D03*
X173327Y229537D02*
D03*
X149959Y238173D02*
D03*
X161389Y238427D02*
D03*
X173073Y238681D02*
D03*
X149451Y248587D02*
D03*
X160881Y248841D02*
D03*
X149197Y258239D02*
D03*
X160627Y258493D02*
D03*
X172311Y258747D02*
D03*
X172212Y267716D02*
D03*
X160528Y267462D02*
D03*
X149098Y267208D02*
D03*
X104878Y216899D02*
D03*
X93702Y216645D02*
D03*
X82272Y216391D02*
D03*
X72366Y216645D02*
D03*
X72390Y240792D02*
D03*
X82296Y240538D02*
D03*
X93726Y240792D02*
D03*
X104902Y241046D02*
D03*
X72390Y250698D02*
D03*
X82296Y250444D02*
D03*
X93726Y250698D02*
D03*
X104902Y250952D02*
D03*
Y261112D02*
D03*
X93726Y260858D02*
D03*
X82296Y260604D02*
D03*
X72390Y260858D02*
D03*
X105918Y231394D02*
D03*
X94742Y231140D02*
D03*
X83312Y230886D02*
D03*
X73406Y231140D02*
D03*
X62230Y230886D02*
D03*
X105918Y226314D02*
D03*
X94742Y226060D02*
D03*
X83312Y225806D02*
D03*
X73406Y226060D02*
D03*
X62230Y225806D02*
D03*
X118872Y310388D02*
D03*
X168910Y41402D02*
D03*
M02*
