G04*
G04 #@! TF.GenerationSoftware,Altium Limited,Altium Designer,24.9.1 (31)*
G04*
G04 Layer_Color=65535*
%FSLAX44Y44*%
%MOMM*%
G71*
G04*
G04 #@! TF.SameCoordinates,FEB28A8C-77E3-45AE-8D42-727CA5368162*
G04*
G04*
G04 #@! TF.FilePolarity,Positive*
G04*
G01*
G75*
%ADD10C,0.4000*%
%ADD11C,0.1778*%
%ADD12C,0.2007*%
%ADD13C,0.2000*%
%ADD14C,0.1000*%
%ADD15C,0.1270*%
%ADD16C,0.5000*%
%ADD17C,0.3000*%
G36*
X80361Y271506D02*
X80478Y271492D01*
X80625Y271477D01*
X80771Y271462D01*
X80946Y271418D01*
X81298Y271331D01*
X81678Y271199D01*
X81853Y271111D01*
X82044Y271009D01*
X82205Y270877D01*
X82366Y270745D01*
X82380Y270731D01*
X82395Y270716D01*
X82439Y270672D01*
X82497Y270614D01*
X82556Y270541D01*
X82629Y270438D01*
X82775Y270219D01*
X82921Y269941D01*
X83053Y269619D01*
X83155Y269253D01*
X83170Y269048D01*
X83185Y268843D01*
Y268814D01*
Y268741D01*
X83170Y268609D01*
X83155Y268448D01*
X83126Y268258D01*
X83082Y268053D01*
X83024Y267819D01*
X82951Y267600D01*
X82936Y267570D01*
X82907Y267497D01*
X82848Y267380D01*
X82775Y267234D01*
X82673Y267044D01*
X82541Y266839D01*
X82380Y266619D01*
X82205Y266385D01*
X82190Y266371D01*
X82146Y266312D01*
X82058Y266210D01*
X81927Y266078D01*
X81766Y265903D01*
X81546Y265683D01*
X81298Y265434D01*
X80990Y265156D01*
X80976Y265142D01*
X80946Y265127D01*
X80903Y265083D01*
X80859Y265025D01*
X80712Y264893D01*
X80537Y264718D01*
X80346Y264542D01*
X80171Y264366D01*
X80010Y264205D01*
X79952Y264147D01*
X79893Y264088D01*
X79878Y264074D01*
X79849Y264045D01*
X79805Y264001D01*
X79761Y263927D01*
X79630Y263781D01*
X79513Y263591D01*
X83185D01*
Y261879D01*
X76733D01*
Y261894D01*
Y261923D01*
X76747Y261982D01*
X76762Y262040D01*
X76777Y262128D01*
X76791Y262230D01*
X76850Y262465D01*
X76923Y262757D01*
X77040Y263064D01*
X77172Y263386D01*
X77347Y263708D01*
Y263723D01*
X77376Y263752D01*
X77406Y263796D01*
X77450Y263869D01*
X77523Y263957D01*
X77596Y264059D01*
X77698Y264191D01*
X77801Y264323D01*
X77933Y264484D01*
X78093Y264659D01*
X78254Y264849D01*
X78444Y265054D01*
X78664Y265273D01*
X78884Y265508D01*
X79147Y265756D01*
X79425Y266020D01*
X79439Y266034D01*
X79483Y266064D01*
X79542Y266137D01*
X79630Y266210D01*
X79717Y266298D01*
X79834Y266415D01*
X80083Y266649D01*
X80346Y266912D01*
X80595Y267176D01*
X80712Y267292D01*
X80815Y267395D01*
X80903Y267497D01*
X80961Y267585D01*
X80976Y267614D01*
X81019Y267688D01*
X81078Y267790D01*
X81151Y267936D01*
X81224Y268112D01*
X81283Y268302D01*
X81327Y268507D01*
X81341Y268712D01*
Y268741D01*
Y268814D01*
X81327Y268931D01*
X81298Y269063D01*
X81254Y269209D01*
X81195Y269370D01*
X81122Y269531D01*
X81005Y269663D01*
X80990Y269677D01*
X80946Y269721D01*
X80873Y269765D01*
X80771Y269838D01*
X80639Y269897D01*
X80478Y269941D01*
X80288Y269984D01*
X80083Y269999D01*
X79995D01*
X79878Y269984D01*
X79761Y269955D01*
X79615Y269911D01*
X79454Y269853D01*
X79308Y269765D01*
X79161Y269648D01*
X79147Y269633D01*
X79103Y269575D01*
X79059Y269502D01*
X78986Y269370D01*
X78927Y269209D01*
X78854Y269019D01*
X78810Y268770D01*
X78781Y268492D01*
X76952Y268668D01*
Y268682D01*
X76967Y268741D01*
Y268814D01*
X76996Y268916D01*
X77011Y269048D01*
X77055Y269180D01*
X77084Y269341D01*
X77142Y269516D01*
X77274Y269867D01*
X77450Y270233D01*
X77567Y270409D01*
X77684Y270570D01*
X77830Y270716D01*
X77976Y270848D01*
X77991Y270862D01*
X78020Y270877D01*
X78064Y270906D01*
X78137Y270950D01*
X78211Y271009D01*
X78313Y271067D01*
X78430Y271126D01*
X78576Y271184D01*
X78723Y271243D01*
X78884Y271301D01*
X79249Y271418D01*
X79659Y271492D01*
X79893Y271521D01*
X80259D01*
X80361Y271506D01*
D02*
G37*
G36*
X72124Y271477D02*
X72432D01*
X72592Y271462D01*
X72958Y271433D01*
X73324Y271374D01*
X73675Y271316D01*
X73836Y271272D01*
X73968Y271228D01*
X73982D01*
X73997Y271213D01*
X74085Y271184D01*
X74216Y271111D01*
X74377Y271009D01*
X74553Y270877D01*
X74743Y270716D01*
X74919Y270526D01*
X75094Y270292D01*
X75109Y270263D01*
X75167Y270175D01*
X75226Y270043D01*
X75314Y269853D01*
X75387Y269633D01*
X75460Y269385D01*
X75504Y269092D01*
X75518Y268785D01*
Y268770D01*
Y268741D01*
Y268682D01*
X75504Y268609D01*
Y268507D01*
X75489Y268404D01*
X75445Y268156D01*
X75357Y267878D01*
X75241Y267570D01*
X75094Y267278D01*
X74992Y267132D01*
X74875Y267000D01*
Y266985D01*
X74845Y266971D01*
X74802Y266941D01*
X74758Y266883D01*
X74685Y266839D01*
X74611Y266766D01*
X74509Y266693D01*
X74407Y266619D01*
X74275Y266546D01*
X74143Y266473D01*
X73982Y266400D01*
X73807Y266327D01*
X73631Y266254D01*
X73426Y266195D01*
X73222Y266151D01*
X72987Y266108D01*
X73002D01*
X73017Y266093D01*
X73090Y266049D01*
X73207Y265976D01*
X73353Y265873D01*
X73514Y265756D01*
X73690Y265610D01*
X73865Y265464D01*
X74026Y265303D01*
X74041Y265288D01*
X74099Y265215D01*
X74187Y265113D01*
X74319Y264952D01*
X74480Y264732D01*
X74655Y264469D01*
X74772Y264308D01*
X74875Y264132D01*
X74992Y263957D01*
X75123Y263752D01*
X76294Y261879D01*
X73968D01*
X72592Y263957D01*
X72578Y263971D01*
X72563Y264001D01*
X72519Y264059D01*
X72475Y264132D01*
X72417Y264235D01*
X72344Y264323D01*
X72183Y264557D01*
X72022Y264805D01*
X71846Y265025D01*
X71685Y265230D01*
X71627Y265317D01*
X71568Y265376D01*
X71554Y265391D01*
X71524Y265420D01*
X71466Y265478D01*
X71393Y265537D01*
X71203Y265669D01*
X71100Y265727D01*
X70983Y265771D01*
X70968D01*
X70925Y265786D01*
X70851Y265815D01*
X70749Y265830D01*
X70617Y265859D01*
X70456Y265873D01*
X70251Y265888D01*
X69637D01*
Y261879D01*
X67691D01*
Y271492D01*
X71993D01*
X72124Y271477D01*
D02*
G37*
G36*
X179721Y261625D02*
X177877D01*
Y268560D01*
X177863Y268545D01*
X177833Y268516D01*
X177775Y268472D01*
X177702Y268399D01*
X177599Y268326D01*
X177482Y268238D01*
X177351Y268136D01*
X177190Y268033D01*
X177029Y267916D01*
X176838Y267799D01*
X176443Y267580D01*
X175990Y267360D01*
X175492Y267170D01*
Y268838D01*
X175507D01*
X175522Y268853D01*
X175566Y268867D01*
X175624Y268882D01*
X175770Y268941D01*
X175961Y269043D01*
X176195Y269160D01*
X176458Y269321D01*
X176751Y269496D01*
X177058Y269730D01*
X177073Y269745D01*
X177102Y269760D01*
X177146Y269804D01*
X177190Y269848D01*
X177336Y269979D01*
X177526Y270169D01*
X177716Y270389D01*
X177906Y270652D01*
X178082Y270945D01*
X178214Y271267D01*
X179721D01*
Y261625D01*
D02*
G37*
G36*
X170152Y271223D02*
X170460D01*
X170620Y271208D01*
X170986Y271179D01*
X171352Y271120D01*
X171703Y271062D01*
X171864Y271018D01*
X171996Y270974D01*
X172010D01*
X172025Y270959D01*
X172113Y270930D01*
X172244Y270857D01*
X172405Y270755D01*
X172581Y270623D01*
X172771Y270462D01*
X172947Y270272D01*
X173122Y270038D01*
X173137Y270009D01*
X173195Y269921D01*
X173254Y269789D01*
X173342Y269599D01*
X173415Y269379D01*
X173488Y269131D01*
X173532Y268838D01*
X173547Y268531D01*
Y268516D01*
Y268487D01*
Y268428D01*
X173532Y268355D01*
Y268253D01*
X173517Y268150D01*
X173473Y267902D01*
X173386Y267624D01*
X173269Y267316D01*
X173122Y267024D01*
X173020Y266878D01*
X172903Y266746D01*
Y266731D01*
X172874Y266717D01*
X172830Y266687D01*
X172786Y266629D01*
X172713Y266585D01*
X172640Y266512D01*
X172537Y266439D01*
X172435Y266366D01*
X172303Y266292D01*
X172171Y266219D01*
X172010Y266146D01*
X171835Y266073D01*
X171659Y266000D01*
X171455Y265941D01*
X171250Y265897D01*
X171016Y265854D01*
X171030D01*
X171045Y265839D01*
X171118Y265795D01*
X171235Y265722D01*
X171381Y265619D01*
X171542Y265502D01*
X171718Y265356D01*
X171893Y265210D01*
X172054Y265049D01*
X172069Y265034D01*
X172127Y264961D01*
X172215Y264859D01*
X172347Y264698D01*
X172508Y264478D01*
X172683Y264215D01*
X172801Y264054D01*
X172903Y263878D01*
X173020Y263703D01*
X173152Y263498D01*
X174322Y261625D01*
X171996D01*
X170620Y263703D01*
X170606Y263717D01*
X170591Y263747D01*
X170547Y263805D01*
X170504Y263878D01*
X170445Y263981D01*
X170372Y264069D01*
X170211Y264303D01*
X170050Y264551D01*
X169874Y264771D01*
X169713Y264976D01*
X169655Y265063D01*
X169596Y265122D01*
X169582Y265137D01*
X169552Y265166D01*
X169494Y265224D01*
X169421Y265283D01*
X169231Y265415D01*
X169128Y265473D01*
X169011Y265517D01*
X168997D01*
X168953Y265532D01*
X168880Y265561D01*
X168777Y265576D01*
X168645Y265605D01*
X168484Y265619D01*
X168280Y265634D01*
X167665D01*
Y261625D01*
X165719D01*
Y271238D01*
X170021D01*
X170152Y271223D01*
D02*
G37*
G36*
X233870Y291064D02*
X233856D01*
X233829D01*
X233787D01*
X233731Y291050D01*
X233593D01*
X233412Y291022D01*
X233218Y290994D01*
X233024Y290953D01*
X232858Y290897D01*
X232705Y290828D01*
X232677Y290814D01*
X232622Y290772D01*
X232539Y290703D01*
X232456Y290592D01*
X232358Y290467D01*
X232275Y290301D01*
X232220Y290107D01*
X232192Y289885D01*
Y289774D01*
X232206Y289663D01*
X232234Y289538D01*
X232275Y289386D01*
X232344Y289233D01*
X232428Y289094D01*
X232553Y288983D01*
X232566Y288969D01*
X232636Y288942D01*
X232733Y288900D01*
X232885Y288845D01*
X232983Y288817D01*
X233093Y288789D01*
X233218Y288775D01*
X233357Y288748D01*
X233523Y288734D01*
X233690Y288720D01*
X233884Y288706D01*
X234092D01*
X240319D01*
Y286764D01*
X234231D01*
X234217D01*
X234175D01*
X234120D01*
X234037D01*
X233939D01*
X233815Y286778D01*
X233551Y286792D01*
X233260Y286820D01*
X232955Y286861D01*
X232650Y286917D01*
X232386Y286986D01*
X232372D01*
X232344Y287000D01*
X232303Y287014D01*
X232248Y287042D01*
X232095Y287111D01*
X231901Y287222D01*
X231693Y287361D01*
X231471Y287541D01*
X231249Y287749D01*
X231041Y288013D01*
Y288026D01*
X231013Y288040D01*
X230999Y288082D01*
X230958Y288151D01*
X230930Y288221D01*
X230888Y288304D01*
X230833Y288415D01*
X230791Y288526D01*
X230750Y288664D01*
X230694Y288803D01*
X230625Y289136D01*
X230569Y289524D01*
X230542Y289954D01*
Y290093D01*
X230555Y290190D01*
X230569Y290315D01*
X230583Y290439D01*
X230611Y290592D01*
X230639Y290758D01*
X230736Y291119D01*
X230805Y291299D01*
X230875Y291480D01*
X230972Y291660D01*
X231069Y291826D01*
X231194Y291993D01*
X231332Y292145D01*
X231346Y292159D01*
X231374Y292173D01*
X231415Y292215D01*
X231485Y292270D01*
X231568Y292326D01*
X231665Y292381D01*
X231790Y292450D01*
X231915Y292520D01*
X232081Y292603D01*
X232248Y292672D01*
X232442Y292728D01*
X232650Y292783D01*
X232871Y292839D01*
X233121Y292880D01*
X233385Y292894D01*
X233662Y292908D01*
X233870Y291064D01*
D02*
G37*
G36*
X240319Y281161D02*
X240305Y281009D01*
Y280648D01*
X240277Y280260D01*
X240250Y279872D01*
X240236Y279705D01*
X240222Y279539D01*
X240194Y279400D01*
X240166Y279289D01*
Y279275D01*
X240152Y279248D01*
X240139Y279206D01*
X240125Y279151D01*
X240055Y278998D01*
X239972Y278804D01*
X239847Y278596D01*
X239681Y278360D01*
X239473Y278138D01*
X239223Y277916D01*
X239209D01*
X239195Y277889D01*
X239154Y277861D01*
X239098Y277833D01*
X239015Y277778D01*
X238932Y277736D01*
X238835Y277680D01*
X238724Y277625D01*
X238447Y277528D01*
X238141Y277431D01*
X237767Y277375D01*
X237365Y277348D01*
X237351D01*
X237323D01*
X237282D01*
X237212D01*
X237143Y277362D01*
X237046D01*
X236852Y277389D01*
X236616Y277431D01*
X236353Y277486D01*
X236103Y277570D01*
X235867Y277680D01*
X235839Y277694D01*
X235770Y277736D01*
X235659Y277805D01*
X235520Y277902D01*
X235382Y278013D01*
X235215Y278166D01*
X235063Y278319D01*
X234924Y278499D01*
X234910Y278526D01*
X234869Y278582D01*
X234813Y278679D01*
X234744Y278804D01*
X234661Y278956D01*
X234591Y279123D01*
X234522Y279303D01*
X234466Y279497D01*
Y279525D01*
X234452Y279567D01*
Y279622D01*
X234439Y279692D01*
X234425Y279788D01*
X234411Y279886D01*
Y280010D01*
X234397Y280135D01*
X234383Y280288D01*
X234369Y280454D01*
X234356Y280634D01*
Y280829D01*
X234342Y281037D01*
Y282756D01*
X230722D01*
Y284698D01*
X240319D01*
Y281161D01*
D02*
G37*
G36*
X230819Y276391D02*
X230888Y276377D01*
X230972Y276363D01*
X231069Y276349D01*
X231318Y276294D01*
X231596Y276210D01*
X231901Y276099D01*
X232234Y275961D01*
X232553Y275781D01*
X232566D01*
X232594Y275753D01*
X232650Y275725D01*
X232705Y275670D01*
X232802Y275614D01*
X232899Y275531D01*
X233024Y275434D01*
X233163Y275323D01*
X233329Y275198D01*
X233496Y275046D01*
X233690Y274879D01*
X233898Y274685D01*
X234106Y274477D01*
X234342Y274241D01*
X234591Y273992D01*
X234855Y273714D01*
X234869Y273700D01*
X234910Y273659D01*
X234966Y273603D01*
X235049Y273520D01*
X235132Y273409D01*
X235243Y273298D01*
X235493Y273048D01*
X235756Y272799D01*
X236020Y272549D01*
X236131Y272438D01*
X236255Y272327D01*
X236353Y272244D01*
X236436Y272189D01*
X236464Y272175D01*
X236533Y272133D01*
X236644Y272064D01*
X236796Y271994D01*
X236963Y271925D01*
X237157Y271856D01*
X237351Y271814D01*
X237559Y271800D01*
X237573D01*
X237587D01*
X237656D01*
X237781Y271814D01*
X237920Y271842D01*
X238072Y271884D01*
X238225Y271939D01*
X238377Y272022D01*
X238516Y272133D01*
X238530Y272147D01*
X238571Y272189D01*
X238627Y272272D01*
X238682Y272369D01*
X238738Y272508D01*
X238793Y272660D01*
X238835Y272840D01*
X238849Y273048D01*
Y273146D01*
X238835Y273256D01*
X238807Y273381D01*
X238766Y273534D01*
X238696Y273686D01*
X238613Y273839D01*
X238502Y273978D01*
X238488Y273992D01*
X238433Y274033D01*
X238350Y274089D01*
X238225Y274144D01*
X238072Y274213D01*
X237864Y274269D01*
X237628Y274324D01*
X237351Y274352D01*
X237531Y276183D01*
X237545D01*
X237601Y276169D01*
X237670D01*
X237781Y276141D01*
X237906Y276127D01*
X238044Y276086D01*
X238197Y276044D01*
X238377Y276003D01*
X238724Y275864D01*
X239085Y275697D01*
X239265Y275586D01*
X239431Y275462D01*
X239570Y275323D01*
X239709Y275170D01*
X239722Y275156D01*
X239736Y275129D01*
X239764Y275087D01*
X239820Y275018D01*
X239861Y274935D01*
X239917Y274824D01*
X239986Y274713D01*
X240042Y274574D01*
X240111Y274422D01*
X240166Y274255D01*
X240277Y273895D01*
X240347Y273465D01*
X240361Y273243D01*
X240374Y273007D01*
Y272868D01*
X240361Y272771D01*
X240347Y272646D01*
X240333Y272508D01*
X240305Y272355D01*
X240277Y272189D01*
X240180Y271828D01*
X240042Y271467D01*
X239958Y271273D01*
X239861Y271107D01*
X239736Y270927D01*
X239598Y270774D01*
X239584Y270760D01*
X239570Y270732D01*
X239515Y270705D01*
X239459Y270649D01*
X239390Y270580D01*
X239293Y270511D01*
X239195Y270441D01*
X239071Y270358D01*
X238793Y270219D01*
X238474Y270081D01*
X238294Y270025D01*
X238100Y269998D01*
X237892Y269970D01*
X237684Y269956D01*
X237656D01*
X237573D01*
X237448Y269970D01*
X237296Y269984D01*
X237101Y270011D01*
X236893Y270053D01*
X236672Y270108D01*
X236450Y270192D01*
X236422Y270205D01*
X236353Y270233D01*
X236228Y270289D01*
X236075Y270372D01*
X235895Y270469D01*
X235687Y270594D01*
X235465Y270746D01*
X235229Y270927D01*
X235215Y270940D01*
X235146Y270996D01*
X235049Y271079D01*
X234910Y271204D01*
X234744Y271370D01*
X234522Y271579D01*
X234286Y271828D01*
X233995Y272133D01*
X233981Y272147D01*
X233967Y272175D01*
X233925Y272216D01*
X233870Y272272D01*
X233731Y272424D01*
X233565Y272605D01*
X233385Y272785D01*
X233204Y272965D01*
X233052Y273132D01*
X232983Y273187D01*
X232927Y273243D01*
X232913Y273256D01*
X232885Y273284D01*
X232830Y273326D01*
X232761Y273381D01*
X232608Y273506D01*
X232428Y273617D01*
Y269956D01*
X230722D01*
Y276405D01*
X230736D01*
X230763D01*
X230819Y276391D01*
D02*
G37*
G36*
X233616Y80758D02*
X233602D01*
X233575D01*
X233533D01*
X233477Y80744D01*
X233339D01*
X233158Y80716D01*
X232964Y80688D01*
X232770Y80647D01*
X232604Y80591D01*
X232451Y80522D01*
X232423Y80508D01*
X232368Y80466D01*
X232285Y80397D01*
X232201Y80286D01*
X232104Y80161D01*
X232021Y79995D01*
X231966Y79801D01*
X231938Y79579D01*
Y79468D01*
X231952Y79357D01*
X231980Y79232D01*
X232021Y79080D01*
X232091Y78927D01*
X232174Y78788D01*
X232299Y78678D01*
X232313Y78664D01*
X232382Y78636D01*
X232479Y78594D01*
X232631Y78539D01*
X232729Y78511D01*
X232840Y78483D01*
X232964Y78470D01*
X233103Y78442D01*
X233269Y78428D01*
X233436Y78414D01*
X233630Y78400D01*
X233838D01*
X240065D01*
Y76459D01*
X233977D01*
X233963D01*
X233921D01*
X233866D01*
X233783D01*
X233685D01*
X233561Y76472D01*
X233297Y76486D01*
X233006Y76514D01*
X232701Y76556D01*
X232396Y76611D01*
X232132Y76680D01*
X232118D01*
X232091Y76694D01*
X232049Y76708D01*
X231994Y76736D01*
X231841Y76805D01*
X231647Y76916D01*
X231439Y77055D01*
X231217Y77235D01*
X230995Y77443D01*
X230787Y77707D01*
Y77721D01*
X230759Y77734D01*
X230745Y77776D01*
X230704Y77845D01*
X230676Y77915D01*
X230634Y77998D01*
X230579Y78109D01*
X230537Y78220D01*
X230496Y78358D01*
X230440Y78497D01*
X230371Y78830D01*
X230315Y79218D01*
X230288Y79648D01*
Y79787D01*
X230301Y79884D01*
X230315Y80009D01*
X230329Y80134D01*
X230357Y80286D01*
X230385Y80453D01*
X230482Y80813D01*
X230551Y80993D01*
X230620Y81174D01*
X230718Y81354D01*
X230815Y81521D01*
X230940Y81687D01*
X231078Y81840D01*
X231092Y81853D01*
X231120Y81867D01*
X231161Y81909D01*
X231231Y81964D01*
X231314Y82020D01*
X231411Y82075D01*
X231536Y82145D01*
X231661Y82214D01*
X231827Y82297D01*
X231994Y82367D01*
X232188Y82422D01*
X232396Y82477D01*
X232618Y82533D01*
X232867Y82575D01*
X233131Y82588D01*
X233408Y82602D01*
X233616Y80758D01*
D02*
G37*
G36*
X240065Y70856D02*
X240051Y70703D01*
Y70343D01*
X240023Y69954D01*
X239996Y69566D01*
X239982Y69399D01*
X239968Y69233D01*
X239940Y69094D01*
X239912Y68983D01*
Y68970D01*
X239898Y68942D01*
X239885Y68900D01*
X239871Y68845D01*
X239801Y68692D01*
X239718Y68498D01*
X239593Y68290D01*
X239427Y68054D01*
X239219Y67832D01*
X238969Y67611D01*
X238955D01*
X238942Y67583D01*
X238900Y67555D01*
X238845Y67527D01*
X238761Y67472D01*
X238678Y67430D01*
X238581Y67375D01*
X238470Y67319D01*
X238193Y67222D01*
X237888Y67125D01*
X237513Y67070D01*
X237111Y67042D01*
X237097D01*
X237069D01*
X237028D01*
X236958D01*
X236889Y67056D01*
X236792D01*
X236598Y67084D01*
X236362Y67125D01*
X236098Y67181D01*
X235849Y67264D01*
X235613Y67375D01*
X235585Y67389D01*
X235516Y67430D01*
X235405Y67500D01*
X235266Y67597D01*
X235128Y67708D01*
X234961Y67860D01*
X234809Y68013D01*
X234670Y68193D01*
X234656Y68221D01*
X234615Y68276D01*
X234559Y68373D01*
X234490Y68498D01*
X234407Y68651D01*
X234337Y68817D01*
X234268Y68997D01*
X234212Y69191D01*
Y69219D01*
X234199Y69261D01*
Y69316D01*
X234185Y69386D01*
X234171Y69483D01*
X234157Y69580D01*
Y69705D01*
X234143Y69830D01*
X234129Y69982D01*
X234115Y70148D01*
X234102Y70329D01*
Y70523D01*
X234088Y70731D01*
Y72451D01*
X230468D01*
Y74392D01*
X240065D01*
Y70856D01*
D02*
G37*
G36*
X237693Y65364D02*
X237707Y65350D01*
X237721Y65308D01*
X237735Y65253D01*
X237804Y65114D01*
X237888Y64920D01*
X237999Y64684D01*
X238151Y64421D01*
X238345Y64130D01*
X238567Y63824D01*
X238581Y63811D01*
X238595Y63783D01*
X238636Y63741D01*
X238692Y63686D01*
X238831Y63533D01*
X239011Y63367D01*
X239233Y63173D01*
X239510Y62979D01*
X239801Y62798D01*
X240120Y62660D01*
Y61162D01*
X230468D01*
Y63006D01*
X237416D01*
X237402Y63020D01*
X237374Y63048D01*
X237333Y63103D01*
X237264Y63186D01*
X237180Y63284D01*
X237097Y63394D01*
X237000Y63533D01*
X236889Y63686D01*
X236778Y63852D01*
X236667Y64033D01*
X236542Y64227D01*
X236431Y64435D01*
X236223Y64878D01*
X236029Y65378D01*
X237693D01*
Y65364D01*
D02*
G37*
G36*
X63010Y179902D02*
Y179888D01*
Y179847D01*
Y179791D01*
Y179708D01*
Y179611D01*
X62996Y179486D01*
X62982Y179223D01*
X62954Y178932D01*
X62912Y178626D01*
X62857Y178321D01*
X62788Y178058D01*
Y178044D01*
X62774Y178016D01*
X62760Y177975D01*
X62732Y177919D01*
X62663Y177767D01*
X62552Y177572D01*
X62413Y177365D01*
X62233Y177143D01*
X62025Y176921D01*
X61761Y176713D01*
X61747D01*
X61734Y176685D01*
X61692Y176671D01*
X61623Y176629D01*
X61553Y176602D01*
X61470Y176560D01*
X61359Y176505D01*
X61248Y176463D01*
X61109Y176421D01*
X60971Y176366D01*
X60638Y176297D01*
X60250Y176241D01*
X59820Y176213D01*
X59681D01*
X59584Y176227D01*
X59459Y176241D01*
X59334Y176255D01*
X59182Y176283D01*
X59015Y176311D01*
X58655Y176408D01*
X58474Y176477D01*
X58294Y176546D01*
X58114Y176643D01*
X57948Y176740D01*
X57781Y176865D01*
X57628Y177004D01*
X57615Y177018D01*
X57601Y177045D01*
X57559Y177087D01*
X57504Y177156D01*
X57448Y177240D01*
X57393Y177337D01*
X57323Y177461D01*
X57254Y177586D01*
X57171Y177753D01*
X57101Y177919D01*
X57046Y178113D01*
X56991Y178321D01*
X56935Y178543D01*
X56894Y178793D01*
X56880Y179056D01*
X56866Y179334D01*
X58710Y179542D01*
Y179528D01*
Y179500D01*
Y179459D01*
X58724Y179403D01*
Y179264D01*
X58752Y179084D01*
X58780Y178890D01*
X58821Y178696D01*
X58877Y178529D01*
X58946Y178377D01*
X58960Y178349D01*
X59001Y178294D01*
X59071Y178210D01*
X59182Y178127D01*
X59307Y178030D01*
X59473Y177947D01*
X59667Y177892D01*
X59889Y177864D01*
X60000D01*
X60111Y177878D01*
X60236Y177905D01*
X60388Y177947D01*
X60541Y178016D01*
X60680Y178099D01*
X60791Y178224D01*
X60804Y178238D01*
X60832Y178307D01*
X60874Y178405D01*
X60929Y178557D01*
X60957Y178654D01*
X60985Y178765D01*
X60999Y178890D01*
X61026Y179029D01*
X61040Y179195D01*
X61054Y179361D01*
X61068Y179556D01*
Y179764D01*
Y185991D01*
X63010D01*
Y179902D01*
D02*
G37*
G36*
X70720Y184146D02*
X67239D01*
X66948Y182510D01*
X66962D01*
X66976Y182523D01*
X67059Y182565D01*
X67184Y182607D01*
X67336Y182676D01*
X67531Y182731D01*
X67739Y182773D01*
X67974Y182815D01*
X68210Y182829D01*
X68335D01*
X68418Y182815D01*
X68515Y182801D01*
X68640Y182787D01*
X68779Y182759D01*
X68931Y182718D01*
X69250Y182607D01*
X69430Y182537D01*
X69597Y182454D01*
X69777Y182343D01*
X69957Y182218D01*
X70124Y182080D01*
X70290Y181927D01*
X70304Y181913D01*
X70332Y181886D01*
X70374Y181830D01*
X70429Y181761D01*
X70484Y181677D01*
X70568Y181567D01*
X70637Y181442D01*
X70720Y181303D01*
X70803Y181150D01*
X70873Y180970D01*
X70956Y180776D01*
X71012Y180582D01*
X71067Y180360D01*
X71109Y180124D01*
X71136Y179875D01*
X71150Y179611D01*
Y179597D01*
Y179556D01*
Y179500D01*
X71136Y179417D01*
Y179306D01*
X71109Y179181D01*
X71095Y179042D01*
X71067Y178904D01*
X70984Y178571D01*
X70859Y178210D01*
X70776Y178016D01*
X70693Y177836D01*
X70582Y177656D01*
X70457Y177475D01*
X70443Y177461D01*
X70415Y177420D01*
X70360Y177365D01*
X70290Y177281D01*
X70193Y177184D01*
X70068Y177073D01*
X69930Y176962D01*
X69777Y176851D01*
X69597Y176726D01*
X69403Y176616D01*
X69195Y176505D01*
X68959Y176408D01*
X68709Y176324D01*
X68446Y176269D01*
X68155Y176227D01*
X67849Y176213D01*
X67725D01*
X67628Y176227D01*
X67517Y176241D01*
X67378Y176255D01*
X67239Y176269D01*
X67073Y176297D01*
X66740Y176380D01*
X66366Y176518D01*
X66185Y176588D01*
X66005Y176685D01*
X65839Y176796D01*
X65672Y176921D01*
X65658Y176935D01*
X65631Y176948D01*
X65589Y176990D01*
X65533Y177045D01*
X65478Y177129D01*
X65395Y177212D01*
X65325Y177309D01*
X65242Y177420D01*
X65145Y177559D01*
X65062Y177697D01*
X64909Y178030D01*
X64771Y178405D01*
X64729Y178613D01*
X64688Y178834D01*
X66518Y179029D01*
Y179001D01*
X66532Y178932D01*
X66560Y178807D01*
X66601Y178668D01*
X66657Y178515D01*
X66740Y178349D01*
X66851Y178197D01*
X66976Y178044D01*
X66990Y178030D01*
X67045Y177988D01*
X67128Y177933D01*
X67239Y177864D01*
X67364Y177794D01*
X67517Y177739D01*
X67697Y177697D01*
X67877Y177683D01*
X67905D01*
X67974Y177697D01*
X68085Y177711D01*
X68224Y177739D01*
X68376Y177794D01*
X68543Y177878D01*
X68709Y178002D01*
X68862Y178155D01*
X68876Y178183D01*
X68931Y178238D01*
X68987Y178349D01*
X69070Y178515D01*
X69139Y178710D01*
X69209Y178946D01*
X69250Y179237D01*
X69264Y179569D01*
Y179583D01*
Y179611D01*
Y179653D01*
Y179722D01*
X69250Y179875D01*
X69209Y180069D01*
X69167Y180291D01*
X69098Y180513D01*
X69001Y180721D01*
X68862Y180901D01*
X68848Y180915D01*
X68793Y180970D01*
X68696Y181040D01*
X68585Y181137D01*
X68432Y181220D01*
X68252Y181289D01*
X68044Y181345D01*
X67822Y181359D01*
X67739D01*
X67683Y181345D01*
X67544Y181317D01*
X67350Y181275D01*
X67128Y181192D01*
X66893Y181067D01*
X66768Y180984D01*
X66643Y180887D01*
X66518Y180776D01*
X66393Y180651D01*
X64909Y180859D01*
X65852Y185866D01*
X70720D01*
Y184146D01*
D02*
G37*
G36*
X181326Y182928D02*
Y182914D01*
Y182870D01*
Y182811D01*
Y182738D01*
Y182636D01*
X181311Y182519D01*
X181297Y182255D01*
X181267Y181948D01*
X181238Y181641D01*
X181180Y181348D01*
X181106Y181085D01*
Y181070D01*
X181092Y181056D01*
X181077Y181012D01*
X181048Y180953D01*
X180975Y180792D01*
X180872Y180602D01*
X180741Y180397D01*
X180550Y180163D01*
X180346Y179944D01*
X180082Y179739D01*
X180068D01*
X180053Y179724D01*
X180009Y179695D01*
X179951Y179666D01*
X179877Y179622D01*
X179790Y179578D01*
X179687Y179534D01*
X179570Y179490D01*
X179292Y179402D01*
X178956Y179315D01*
X178575Y179256D01*
X178137Y179242D01*
X178005D01*
X177902Y179256D01*
X177785Y179271D01*
X177654Y179285D01*
X177493Y179315D01*
X177332Y179344D01*
X176981Y179432D01*
X176615Y179578D01*
X176439Y179666D01*
X176264Y179768D01*
X176088Y179900D01*
X175942Y180032D01*
X175927Y180046D01*
X175913Y180075D01*
X175869Y180119D01*
X175825Y180178D01*
X175766Y180266D01*
X175708Y180368D01*
X175635Y180485D01*
X175562Y180617D01*
X175488Y180778D01*
X175415Y180953D01*
X175357Y181143D01*
X175298Y181348D01*
X175254Y181582D01*
X175210Y181831D01*
X175196Y182094D01*
X175181Y182372D01*
X177025Y182577D01*
Y182563D01*
Y182548D01*
Y182504D01*
X177039Y182446D01*
Y182299D01*
X177069Y182124D01*
X177098Y181919D01*
X177142Y181729D01*
X177185Y181553D01*
X177259Y181407D01*
X177273Y181392D01*
X177317Y181334D01*
X177390Y181246D01*
X177493Y181158D01*
X177624Y181056D01*
X177785Y180982D01*
X177976Y180924D01*
X178195Y180895D01*
X178297D01*
X178414Y180909D01*
X178546Y180939D01*
X178707Y180982D01*
X178853Y181056D01*
X178985Y181143D01*
X179102Y181261D01*
X179117Y181275D01*
X179146Y181334D01*
X179190Y181436D01*
X179248Y181597D01*
X179263Y181685D01*
X179292Y181802D01*
X179322Y181919D01*
X179336Y182065D01*
X179351Y182226D01*
X179366Y182402D01*
X179380Y182592D01*
Y182797D01*
Y189029D01*
X181326D01*
Y182928D01*
D02*
G37*
G36*
X188378Y182958D02*
X189563D01*
Y181348D01*
X188378D01*
Y179417D01*
X186593D01*
Y181348D01*
X182657D01*
Y182943D01*
X186827Y189058D01*
X188378D01*
Y182958D01*
D02*
G37*
G36*
X90849Y245598D02*
X90966Y245583D01*
X91112Y245569D01*
X91259Y245554D01*
X91434Y245510D01*
X91785Y245422D01*
X92166Y245291D01*
X92341Y245203D01*
X92532Y245101D01*
X92693Y244969D01*
X92853Y244837D01*
X92868Y244823D01*
X92883Y244808D01*
X92927Y244764D01*
X92985Y244706D01*
X93044Y244632D01*
X93117Y244530D01*
X93263Y244311D01*
X93409Y244033D01*
X93541Y243711D01*
X93644Y243345D01*
X93658Y243140D01*
X93673Y242935D01*
Y242906D01*
Y242833D01*
X93658Y242701D01*
X93644Y242540D01*
X93614Y242350D01*
X93570Y242145D01*
X93512Y241911D01*
X93439Y241692D01*
X93424Y241663D01*
X93395Y241589D01*
X93336Y241472D01*
X93263Y241326D01*
X93161Y241136D01*
X93029Y240931D01*
X92868Y240711D01*
X92693Y240477D01*
X92678Y240463D01*
X92634Y240404D01*
X92546Y240302D01*
X92415Y240170D01*
X92254Y239995D01*
X92034Y239775D01*
X91785Y239527D01*
X91478Y239249D01*
X91464Y239234D01*
X91434Y239219D01*
X91390Y239175D01*
X91347Y239117D01*
X91200Y238985D01*
X91025Y238810D01*
X90835Y238634D01*
X90659Y238458D01*
X90498Y238298D01*
X90440Y238239D01*
X90381Y238181D01*
X90366Y238166D01*
X90337Y238137D01*
X90293Y238093D01*
X90249Y238020D01*
X90118Y237873D01*
X90001Y237683D01*
X93673D01*
Y235971D01*
X87221D01*
Y235986D01*
Y236015D01*
X87235Y236074D01*
X87250Y236132D01*
X87265Y236220D01*
X87279Y236322D01*
X87338Y236556D01*
X87411Y236849D01*
X87528Y237156D01*
X87660Y237478D01*
X87835Y237800D01*
Y237815D01*
X87865Y237844D01*
X87894Y237888D01*
X87938Y237961D01*
X88011Y238049D01*
X88084Y238151D01*
X88186Y238283D01*
X88289Y238415D01*
X88420Y238575D01*
X88581Y238751D01*
X88742Y238941D01*
X88933Y239146D01*
X89152Y239366D01*
X89371Y239600D01*
X89635Y239848D01*
X89913Y240112D01*
X89927Y240126D01*
X89971Y240156D01*
X90030Y240229D01*
X90118Y240302D01*
X90205Y240390D01*
X90322Y240507D01*
X90571Y240741D01*
X90835Y241004D01*
X91083Y241268D01*
X91200Y241385D01*
X91303Y241487D01*
X91390Y241589D01*
X91449Y241677D01*
X91464Y241706D01*
X91508Y241780D01*
X91566Y241882D01*
X91639Y242028D01*
X91712Y242204D01*
X91771Y242394D01*
X91815Y242599D01*
X91829Y242804D01*
Y242833D01*
Y242906D01*
X91815Y243023D01*
X91785Y243155D01*
X91742Y243301D01*
X91683Y243462D01*
X91610Y243623D01*
X91493Y243755D01*
X91478Y243769D01*
X91434Y243813D01*
X91361Y243857D01*
X91259Y243930D01*
X91127Y243989D01*
X90966Y244033D01*
X90776Y244076D01*
X90571Y244091D01*
X90483D01*
X90366Y244076D01*
X90249Y244047D01*
X90103Y244003D01*
X89942Y243945D01*
X89796Y243857D01*
X89649Y243740D01*
X89635Y243725D01*
X89591Y243667D01*
X89547Y243594D01*
X89474Y243462D01*
X89415Y243301D01*
X89342Y243111D01*
X89298Y242862D01*
X89269Y242584D01*
X87440Y242760D01*
Y242774D01*
X87455Y242833D01*
Y242906D01*
X87484Y243008D01*
X87499Y243140D01*
X87543Y243272D01*
X87572Y243433D01*
X87630Y243608D01*
X87762Y243960D01*
X87938Y244325D01*
X88055Y244501D01*
X88172Y244662D01*
X88318Y244808D01*
X88464Y244940D01*
X88479Y244954D01*
X88508Y244969D01*
X88552Y244998D01*
X88625Y245042D01*
X88699Y245101D01*
X88801Y245159D01*
X88918Y245218D01*
X89064Y245276D01*
X89211Y245335D01*
X89371Y245393D01*
X89737Y245510D01*
X90147Y245583D01*
X90381Y245613D01*
X90747D01*
X90849Y245598D01*
D02*
G37*
G36*
X82115Y245569D02*
X82378Y245554D01*
X82685Y245540D01*
X82978Y245510D01*
X83271Y245452D01*
X83534Y245393D01*
X83549D01*
X83578Y245379D01*
X83622Y245364D01*
X83680Y245349D01*
X83827Y245276D01*
X84031Y245188D01*
X84251Y245071D01*
X84485Y244911D01*
X84734Y244720D01*
X84968Y244501D01*
X84982D01*
X84997Y244471D01*
X85070Y244384D01*
X85173Y244252D01*
X85319Y244076D01*
X85465Y243842D01*
X85611Y243579D01*
X85758Y243286D01*
X85889Y242950D01*
Y242935D01*
X85904Y242906D01*
X85919Y242862D01*
X85933Y242789D01*
X85963Y242701D01*
X85992Y242584D01*
X86021Y242467D01*
X86050Y242321D01*
X86080Y242160D01*
X86109Y241999D01*
X86167Y241604D01*
X86197Y241165D01*
X86211Y240682D01*
Y240668D01*
Y240624D01*
Y240565D01*
Y240477D01*
X86197Y240375D01*
Y240258D01*
X86167Y239980D01*
X86138Y239658D01*
X86080Y239322D01*
X86006Y238971D01*
X85904Y238634D01*
Y238619D01*
X85889Y238590D01*
X85875Y238532D01*
X85845Y238458D01*
X85802Y238371D01*
X85758Y238268D01*
X85641Y238034D01*
X85494Y237756D01*
X85319Y237478D01*
X85114Y237200D01*
X84880Y236937D01*
X84851Y236922D01*
X84792Y236849D01*
X84675Y236761D01*
X84529Y236659D01*
X84324Y236527D01*
X84090Y236396D01*
X83827Y236278D01*
X83519Y236161D01*
X83490Y236147D01*
X83402Y236132D01*
X83271Y236103D01*
X83066Y236074D01*
X82832Y236030D01*
X82539Y236000D01*
X82188Y235986D01*
X81807Y235971D01*
X78179D01*
Y245583D01*
X81998D01*
X82115Y245569D01*
D02*
G37*
G36*
X86826Y205631D02*
Y205616D01*
Y205557D01*
Y205470D01*
Y205353D01*
Y205206D01*
X86811Y205045D01*
Y204870D01*
Y204680D01*
X86782Y204270D01*
X86753Y203875D01*
X86738Y203685D01*
X86723Y203495D01*
X86694Y203334D01*
X86665Y203187D01*
Y203173D01*
Y203158D01*
X86636Y203070D01*
X86592Y202939D01*
X86533Y202763D01*
X86446Y202573D01*
X86358Y202368D01*
X86226Y202163D01*
X86080Y201973D01*
X86065Y201958D01*
X86007Y201885D01*
X85904Y201798D01*
X85787Y201695D01*
X85612Y201563D01*
X85421Y201432D01*
X85202Y201300D01*
X84953Y201183D01*
X84939D01*
X84924Y201168D01*
X84880Y201154D01*
X84822Y201139D01*
X84763Y201124D01*
X84675Y201095D01*
X84456Y201051D01*
X84192Y200993D01*
X83885Y200949D01*
X83519Y200920D01*
X83110Y200905D01*
X82890D01*
X82773Y200920D01*
X82642D01*
X82334Y200949D01*
X81998Y200978D01*
X81661Y201037D01*
X81325Y201110D01*
X81179Y201154D01*
X81032Y201212D01*
X81018D01*
X81003Y201227D01*
X80915Y201271D01*
X80784Y201344D01*
X80623Y201432D01*
X80447Y201563D01*
X80257Y201695D01*
X80081Y201871D01*
X79906Y202046D01*
X79891Y202075D01*
X79847Y202134D01*
X79774Y202236D01*
X79686Y202368D01*
X79598Y202529D01*
X79511Y202719D01*
X79423Y202909D01*
X79364Y203114D01*
Y203129D01*
Y203158D01*
X79350Y203202D01*
X79335Y203275D01*
X79321Y203348D01*
X79306Y203465D01*
X79291Y203582D01*
X79277Y203729D01*
X79262Y203890D01*
X79247Y204065D01*
X79233Y204270D01*
X79218Y204489D01*
X79204Y204723D01*
Y204987D01*
X79189Y205265D01*
Y205557D01*
Y210693D01*
X81135D01*
Y205470D01*
Y205455D01*
Y205411D01*
Y205353D01*
Y205265D01*
Y205177D01*
Y205060D01*
X81149Y204797D01*
Y204533D01*
X81164Y204270D01*
X81179Y204036D01*
Y203934D01*
X81193Y203860D01*
Y203831D01*
X81222Y203758D01*
X81266Y203655D01*
X81310Y203524D01*
X81398Y203363D01*
X81501Y203202D01*
X81617Y203056D01*
X81778Y202909D01*
X81808Y202895D01*
X81866Y202851D01*
X81969Y202792D01*
X82115Y202734D01*
X82290Y202675D01*
X82510Y202617D01*
X82773Y202573D01*
X83051Y202558D01*
X83183D01*
X83329Y202573D01*
X83519Y202602D01*
X83710Y202646D01*
X83914Y202705D01*
X84105Y202778D01*
X84280Y202895D01*
X84295Y202909D01*
X84353Y202953D01*
X84427Y203026D01*
X84500Y203129D01*
X84587Y203246D01*
X84675Y203377D01*
X84748Y203538D01*
X84792Y203714D01*
Y203743D01*
X84807Y203817D01*
X84822Y203934D01*
X84836Y204109D01*
X84851Y204328D01*
X84866Y204621D01*
Y204782D01*
X84880Y204958D01*
Y205148D01*
Y205353D01*
Y210693D01*
X86826D01*
Y205631D01*
D02*
G37*
G36*
X93190Y201081D02*
X91347D01*
Y208015D01*
X91332Y208001D01*
X91303Y207971D01*
X91244Y207928D01*
X91171Y207854D01*
X91069Y207781D01*
X90952Y207694D01*
X90820Y207591D01*
X90659Y207489D01*
X90498Y207372D01*
X90308Y207255D01*
X89913Y207035D01*
X89459Y206816D01*
X88962Y206625D01*
Y208293D01*
X88977D01*
X88991Y208308D01*
X89035Y208323D01*
X89094Y208337D01*
X89240Y208396D01*
X89430Y208498D01*
X89664Y208615D01*
X89928Y208776D01*
X90220Y208952D01*
X90527Y209186D01*
X90542Y209200D01*
X90571Y209215D01*
X90615Y209259D01*
X90659Y209303D01*
X90805Y209435D01*
X90996Y209625D01*
X91186Y209844D01*
X91376Y210107D01*
X91552Y210400D01*
X91683Y210722D01*
X93190D01*
Y201081D01*
D02*
G37*
G36*
X180442Y90980D02*
Y90966D01*
Y90922D01*
Y90863D01*
Y90790D01*
Y90688D01*
X180427Y90571D01*
X180412Y90307D01*
X180383Y90000D01*
X180354Y89693D01*
X180295Y89400D01*
X180222Y89137D01*
Y89122D01*
X180208Y89108D01*
X180193Y89064D01*
X180164Y89005D01*
X180091Y88844D01*
X179988Y88654D01*
X179856Y88449D01*
X179666Y88215D01*
X179461Y87996D01*
X179198Y87791D01*
X179183D01*
X179169Y87776D01*
X179125Y87747D01*
X179066Y87718D01*
X178993Y87674D01*
X178905Y87630D01*
X178803Y87586D01*
X178686Y87542D01*
X178408Y87454D01*
X178071Y87367D01*
X177691Y87308D01*
X177252Y87294D01*
X177120D01*
X177018Y87308D01*
X176901Y87323D01*
X176769Y87337D01*
X176608Y87367D01*
X176448Y87396D01*
X176096Y87484D01*
X175731Y87630D01*
X175555Y87718D01*
X175380Y87820D01*
X175204Y87952D01*
X175058Y88083D01*
X175043Y88098D01*
X175028Y88127D01*
X174984Y88171D01*
X174941Y88230D01*
X174882Y88318D01*
X174823Y88420D01*
X174750Y88537D01*
X174677Y88669D01*
X174604Y88830D01*
X174531Y89005D01*
X174472Y89195D01*
X174414Y89400D01*
X174370Y89634D01*
X174326Y89883D01*
X174312Y90146D01*
X174297Y90424D01*
X176140Y90629D01*
Y90615D01*
Y90600D01*
Y90556D01*
X176155Y90498D01*
Y90351D01*
X176184Y90176D01*
X176213Y89971D01*
X176257Y89781D01*
X176301Y89605D01*
X176374Y89459D01*
X176389Y89444D01*
X176433Y89386D01*
X176506Y89298D01*
X176608Y89210D01*
X176740Y89108D01*
X176901Y89035D01*
X177091Y88976D01*
X177311Y88947D01*
X177413D01*
X177530Y88961D01*
X177662Y88991D01*
X177823Y89035D01*
X177969Y89108D01*
X178101Y89195D01*
X178218Y89312D01*
X178232Y89327D01*
X178262Y89386D01*
X178306Y89488D01*
X178364Y89649D01*
X178379Y89737D01*
X178408Y89854D01*
X178437Y89971D01*
X178452Y90117D01*
X178466Y90278D01*
X178481Y90454D01*
X178496Y90644D01*
Y90849D01*
Y97081D01*
X180442D01*
Y90980D01*
D02*
G37*
G36*
X185343Y97096D02*
X185460Y97081D01*
X185592Y97067D01*
X185752Y97037D01*
X185913Y97008D01*
X186250Y96891D01*
X186440Y96833D01*
X186616Y96745D01*
X186791Y96642D01*
X186981Y96525D01*
X187142Y96394D01*
X187303Y96233D01*
X187318Y96218D01*
X187332Y96203D01*
X187362Y96159D01*
X187406Y96116D01*
X187523Y95969D01*
X187654Y95765D01*
X187771Y95530D01*
X187889Y95267D01*
X187962Y94960D01*
X187991Y94799D01*
Y94638D01*
Y94623D01*
Y94579D01*
X187976Y94521D01*
Y94433D01*
X187947Y94316D01*
X187918Y94199D01*
X187874Y94067D01*
X187815Y93921D01*
X187742Y93760D01*
X187654Y93599D01*
X187537Y93424D01*
X187406Y93263D01*
X187245Y93087D01*
X187055Y92926D01*
X186850Y92765D01*
X186601Y92619D01*
X186616D01*
X186645Y92604D01*
X186674D01*
X186733Y92590D01*
X186894Y92531D01*
X187069Y92458D01*
X187289Y92356D01*
X187508Y92209D01*
X187713Y92034D01*
X187918Y91829D01*
X187932Y91800D01*
X187991Y91727D01*
X188079Y91595D01*
X188167Y91419D01*
X188254Y91200D01*
X188342Y90936D01*
X188400Y90659D01*
X188415Y90337D01*
Y90322D01*
Y90278D01*
Y90220D01*
X188400Y90132D01*
X188386Y90015D01*
X188371Y89898D01*
X188342Y89751D01*
X188298Y89591D01*
X188181Y89254D01*
X188108Y89078D01*
X188020Y88903D01*
X187918Y88713D01*
X187786Y88537D01*
X187640Y88362D01*
X187479Y88186D01*
X187464Y88171D01*
X187435Y88142D01*
X187391Y88098D01*
X187318Y88054D01*
X187230Y87981D01*
X187113Y87908D01*
X186996Y87820D01*
X186850Y87747D01*
X186689Y87659D01*
X186513Y87571D01*
X186323Y87498D01*
X186118Y87440D01*
X185899Y87381D01*
X185679Y87337D01*
X185431Y87308D01*
X185182Y87294D01*
X185050D01*
X184962Y87308D01*
X184845Y87323D01*
X184714Y87337D01*
X184567Y87352D01*
X184421Y87381D01*
X184070Y87469D01*
X183704Y87615D01*
X183529Y87689D01*
X183338Y87791D01*
X183163Y87908D01*
X183002Y88040D01*
X182987Y88054D01*
X182973Y88069D01*
X182929Y88113D01*
X182870Y88171D01*
X182797Y88244D01*
X182724Y88347D01*
X182651Y88449D01*
X182563Y88566D01*
X182387Y88844D01*
X182227Y89181D01*
X182095Y89561D01*
X182051Y89781D01*
X182022Y90000D01*
X183807Y90220D01*
Y90205D01*
Y90190D01*
X183821Y90103D01*
X183850Y89986D01*
X183894Y89825D01*
X183953Y89664D01*
X184026Y89488D01*
X184128Y89312D01*
X184260Y89166D01*
X184275Y89152D01*
X184333Y89108D01*
X184406Y89049D01*
X184524Y88991D01*
X184655Y88932D01*
X184802Y88874D01*
X184977Y88830D01*
X185167Y88815D01*
X185270D01*
X185372Y88844D01*
X185504Y88874D01*
X185650Y88918D01*
X185811Y88991D01*
X185972Y89093D01*
X186133Y89239D01*
X186147Y89254D01*
X186191Y89327D01*
X186264Y89415D01*
X186338Y89547D01*
X186396Y89722D01*
X186469Y89927D01*
X186513Y90161D01*
X186528Y90424D01*
Y90439D01*
Y90454D01*
Y90541D01*
X186513Y90673D01*
X186484Y90834D01*
X186440Y91010D01*
X186367Y91185D01*
X186279Y91375D01*
X186147Y91536D01*
X186133Y91551D01*
X186074Y91595D01*
X186001Y91668D01*
X185884Y91741D01*
X185752Y91814D01*
X185592Y91887D01*
X185416Y91931D01*
X185226Y91946D01*
X185094D01*
X184992Y91931D01*
X184875Y91917D01*
X184728Y91887D01*
X184567Y91844D01*
X184392Y91800D01*
X184597Y93292D01*
X184714D01*
X184860Y93307D01*
X185021Y93321D01*
X185196Y93350D01*
X185387Y93409D01*
X185577Y93497D01*
X185738Y93599D01*
X185752Y93614D01*
X185796Y93658D01*
X185870Y93745D01*
X185943Y93848D01*
X186016Y93980D01*
X186089Y94141D01*
X186133Y94316D01*
X186147Y94521D01*
Y94536D01*
Y94609D01*
X186133Y94697D01*
X186118Y94799D01*
X186074Y94916D01*
X186030Y95048D01*
X185957Y95179D01*
X185855Y95296D01*
X185840Y95311D01*
X185796Y95340D01*
X185738Y95384D01*
X185650Y95443D01*
X185533Y95501D01*
X185401Y95545D01*
X185240Y95574D01*
X185065Y95589D01*
X184992D01*
X184904Y95574D01*
X184787Y95545D01*
X184655Y95501D01*
X184524Y95443D01*
X184377Y95370D01*
X184245Y95252D01*
X184231Y95238D01*
X184187Y95194D01*
X184143Y95121D01*
X184070Y95018D01*
X183997Y94872D01*
X183938Y94711D01*
X183880Y94521D01*
X183850Y94302D01*
X182153Y94579D01*
Y94594D01*
X182168Y94623D01*
Y94667D01*
X182183Y94726D01*
X182227Y94887D01*
X182285Y95091D01*
X182358Y95311D01*
X182446Y95545D01*
X182563Y95779D01*
X182680Y95984D01*
X182695Y96013D01*
X182753Y96072D01*
X182826Y96159D01*
X182943Y96291D01*
X183090Y96423D01*
X183251Y96554D01*
X183456Y96686D01*
X183675Y96803D01*
X183689D01*
X183704Y96818D01*
X183792Y96847D01*
X183924Y96906D01*
X184099Y96964D01*
X184319Y97008D01*
X184553Y97067D01*
X184831Y97096D01*
X185123Y97111D01*
X185255D01*
X185343Y97096D01*
D02*
G37*
G36*
X62891Y90472D02*
Y90458D01*
Y90414D01*
Y90355D01*
Y90282D01*
Y90180D01*
X62876Y90063D01*
X62861Y89799D01*
X62832Y89492D01*
X62803Y89185D01*
X62744Y88892D01*
X62671Y88629D01*
Y88614D01*
X62657Y88600D01*
X62642Y88556D01*
X62613Y88497D01*
X62540Y88336D01*
X62437Y88146D01*
X62306Y87941D01*
X62115Y87707D01*
X61911Y87488D01*
X61647Y87283D01*
X61633D01*
X61618Y87268D01*
X61574Y87239D01*
X61515Y87210D01*
X61442Y87166D01*
X61355Y87122D01*
X61252Y87078D01*
X61135Y87034D01*
X60857Y86946D01*
X60521Y86859D01*
X60140Y86800D01*
X59701Y86785D01*
X59570D01*
X59467Y86800D01*
X59350Y86815D01*
X59219Y86829D01*
X59058Y86859D01*
X58897Y86888D01*
X58546Y86976D01*
X58180Y87122D01*
X58004Y87210D01*
X57829Y87312D01*
X57653Y87444D01*
X57507Y87576D01*
X57492Y87590D01*
X57478Y87619D01*
X57434Y87663D01*
X57390Y87722D01*
X57331Y87810D01*
X57273Y87912D01*
X57200Y88029D01*
X57126Y88161D01*
X57053Y88322D01*
X56980Y88497D01*
X56922Y88687D01*
X56863Y88892D01*
X56819Y89126D01*
X56775Y89375D01*
X56761Y89638D01*
X56746Y89916D01*
X58590Y90121D01*
Y90107D01*
Y90092D01*
Y90048D01*
X58604Y89990D01*
Y89843D01*
X58633Y89668D01*
X58663Y89463D01*
X58706Y89273D01*
X58750Y89097D01*
X58824Y88951D01*
X58838Y88936D01*
X58882Y88878D01*
X58955Y88790D01*
X59058Y88702D01*
X59189Y88600D01*
X59350Y88526D01*
X59540Y88468D01*
X59760Y88439D01*
X59862D01*
X59979Y88453D01*
X60111Y88483D01*
X60272Y88526D01*
X60418Y88600D01*
X60550Y88687D01*
X60667Y88805D01*
X60682Y88819D01*
X60711Y88878D01*
X60755Y88980D01*
X60813Y89141D01*
X60828Y89229D01*
X60857Y89346D01*
X60886Y89463D01*
X60901Y89609D01*
X60916Y89770D01*
X60930Y89946D01*
X60945Y90136D01*
Y90341D01*
Y96573D01*
X62891D01*
Y90472D01*
D02*
G37*
G36*
X67938Y96588D02*
X68055Y96573D01*
X68202Y96559D01*
X68348Y96544D01*
X68524Y96500D01*
X68875Y96412D01*
X69255Y96281D01*
X69431Y96193D01*
X69621Y96090D01*
X69782Y95959D01*
X69943Y95827D01*
X69957Y95813D01*
X69972Y95798D01*
X70016Y95754D01*
X70074Y95695D01*
X70133Y95622D01*
X70206Y95520D01*
X70352Y95300D01*
X70499Y95022D01*
X70630Y94700D01*
X70733Y94335D01*
X70747Y94130D01*
X70762Y93925D01*
Y93896D01*
Y93823D01*
X70747Y93691D01*
X70733Y93530D01*
X70703Y93340D01*
X70659Y93135D01*
X70601Y92901D01*
X70528Y92682D01*
X70513Y92652D01*
X70484Y92579D01*
X70426Y92462D01*
X70352Y92316D01*
X70250Y92126D01*
X70118Y91921D01*
X69957Y91701D01*
X69782Y91467D01*
X69767Y91453D01*
X69723Y91394D01*
X69635Y91292D01*
X69504Y91160D01*
X69343Y90984D01*
X69123Y90765D01*
X68875Y90516D01*
X68567Y90238D01*
X68553Y90224D01*
X68524Y90209D01*
X68480Y90165D01*
X68436Y90107D01*
X68289Y89975D01*
X68114Y89799D01*
X67924Y89624D01*
X67748Y89448D01*
X67587Y89287D01*
X67529Y89229D01*
X67470Y89170D01*
X67456Y89156D01*
X67426Y89126D01*
X67382Y89082D01*
X67338Y89009D01*
X67207Y88863D01*
X67090Y88673D01*
X70762D01*
Y86961D01*
X64310D01*
Y86976D01*
Y87005D01*
X64325Y87064D01*
X64339Y87122D01*
X64354Y87210D01*
X64369Y87312D01*
X64427Y87546D01*
X64500Y87839D01*
X64617Y88146D01*
X64749Y88468D01*
X64924Y88790D01*
Y88805D01*
X64954Y88834D01*
X64983Y88878D01*
X65027Y88951D01*
X65100Y89039D01*
X65173Y89141D01*
X65276Y89273D01*
X65378Y89404D01*
X65510Y89565D01*
X65671Y89741D01*
X65831Y89931D01*
X66022Y90136D01*
X66241Y90355D01*
X66461Y90589D01*
X66724Y90838D01*
X67002Y91102D01*
X67017Y91116D01*
X67060Y91145D01*
X67119Y91219D01*
X67207Y91292D01*
X67295Y91379D01*
X67412Y91496D01*
X67660Y91731D01*
X67924Y91994D01*
X68172Y92257D01*
X68289Y92374D01*
X68392Y92477D01*
X68480Y92579D01*
X68538Y92667D01*
X68553Y92696D01*
X68597Y92769D01*
X68655Y92872D01*
X68728Y93018D01*
X68801Y93194D01*
X68860Y93384D01*
X68904Y93589D01*
X68918Y93793D01*
Y93823D01*
Y93896D01*
X68904Y94013D01*
X68875Y94145D01*
X68831Y94291D01*
X68772Y94452D01*
X68699Y94613D01*
X68582Y94744D01*
X68567Y94759D01*
X68524Y94803D01*
X68450Y94847D01*
X68348Y94920D01*
X68216Y94979D01*
X68055Y95022D01*
X67865Y95066D01*
X67660Y95081D01*
X67572D01*
X67456Y95066D01*
X67338Y95037D01*
X67192Y94993D01*
X67031Y94935D01*
X66885Y94847D01*
X66739Y94730D01*
X66724Y94715D01*
X66680Y94657D01*
X66636Y94584D01*
X66563Y94452D01*
X66505Y94291D01*
X66431Y94101D01*
X66388Y93852D01*
X66358Y93574D01*
X64529Y93750D01*
Y93764D01*
X64544Y93823D01*
Y93896D01*
X64573Y93998D01*
X64588Y94130D01*
X64632Y94262D01*
X64661Y94423D01*
X64720Y94598D01*
X64851Y94949D01*
X65027Y95315D01*
X65144Y95491D01*
X65261Y95652D01*
X65407Y95798D01*
X65553Y95929D01*
X65568Y95944D01*
X65597Y95959D01*
X65641Y95988D01*
X65715Y96032D01*
X65788Y96090D01*
X65890Y96149D01*
X66007Y96208D01*
X66153Y96266D01*
X66300Y96325D01*
X66461Y96383D01*
X66826Y96500D01*
X67236Y96573D01*
X67470Y96602D01*
X67836D01*
X67938Y96588D01*
D02*
G37*
G36*
X186319Y300784D02*
Y300770D01*
Y300726D01*
Y300667D01*
Y300594D01*
Y300492D01*
X186304Y300375D01*
X186290Y300111D01*
X186260Y299804D01*
X186231Y299497D01*
X186173Y299204D01*
X186099Y298941D01*
Y298926D01*
X186085Y298912D01*
X186070Y298868D01*
X186041Y298809D01*
X185968Y298648D01*
X185865Y298458D01*
X185734Y298253D01*
X185543Y298019D01*
X185339Y297800D01*
X185075Y297595D01*
X185061D01*
X185046Y297580D01*
X185002Y297551D01*
X184944Y297522D01*
X184870Y297478D01*
X184783Y297434D01*
X184680Y297390D01*
X184563Y297346D01*
X184285Y297258D01*
X183949Y297171D01*
X183568Y297112D01*
X183130Y297097D01*
X182998D01*
X182895Y297112D01*
X182778Y297127D01*
X182647Y297141D01*
X182486Y297171D01*
X182325Y297200D01*
X181974Y297288D01*
X181608Y297434D01*
X181432Y297522D01*
X181257Y297624D01*
X181081Y297756D01*
X180935Y297887D01*
X180920Y297902D01*
X180906Y297931D01*
X180862Y297975D01*
X180818Y298034D01*
X180759Y298122D01*
X180701Y298224D01*
X180628Y298341D01*
X180555Y298473D01*
X180481Y298634D01*
X180408Y298809D01*
X180350Y299000D01*
X180291Y299204D01*
X180247Y299438D01*
X180203Y299687D01*
X180189Y299950D01*
X180174Y300228D01*
X182018Y300433D01*
Y300419D01*
Y300404D01*
Y300360D01*
X182032Y300302D01*
Y300155D01*
X182062Y299980D01*
X182091Y299775D01*
X182135Y299585D01*
X182179Y299409D01*
X182252Y299263D01*
X182266Y299248D01*
X182310Y299190D01*
X182383Y299102D01*
X182486Y299014D01*
X182617Y298912D01*
X182778Y298839D01*
X182969Y298780D01*
X183188Y298751D01*
X183291D01*
X183407Y298765D01*
X183539Y298795D01*
X183700Y298839D01*
X183846Y298912D01*
X183978Y299000D01*
X184095Y299116D01*
X184110Y299131D01*
X184139Y299190D01*
X184183Y299292D01*
X184241Y299453D01*
X184256Y299541D01*
X184285Y299658D01*
X184315Y299775D01*
X184329Y299921D01*
X184344Y300082D01*
X184359Y300258D01*
X184373Y300448D01*
Y300653D01*
Y306885D01*
X186319D01*
Y300784D01*
D02*
G37*
G36*
X192698Y297273D02*
X190854D01*
Y304208D01*
X190840Y304193D01*
X190811Y304164D01*
X190752Y304120D01*
X190679Y304047D01*
X190576Y303974D01*
X190459Y303886D01*
X190328Y303784D01*
X190167Y303681D01*
X190006Y303564D01*
X189816Y303447D01*
X189421Y303228D01*
X188967Y303008D01*
X188470Y302818D01*
Y304486D01*
X188484D01*
X188499Y304501D01*
X188543Y304515D01*
X188601Y304530D01*
X188748Y304588D01*
X188938Y304691D01*
X189172Y304808D01*
X189435Y304969D01*
X189728Y305144D01*
X190035Y305378D01*
X190050Y305393D01*
X190079Y305408D01*
X190123Y305452D01*
X190167Y305495D01*
X190313Y305627D01*
X190503Y305817D01*
X190693Y306037D01*
X190884Y306300D01*
X191059Y306593D01*
X191191Y306915D01*
X192698D01*
Y297273D01*
D02*
G37*
G36*
X81931Y46233D02*
X80087D01*
Y53168D01*
X80073Y53154D01*
X80043Y53124D01*
X79985Y53080D01*
X79912Y53007D01*
X79809Y52934D01*
X79692Y52846D01*
X79560Y52744D01*
X79400Y52641D01*
X79239Y52524D01*
X79049Y52407D01*
X78653Y52188D01*
X78200Y51968D01*
X77702Y51778D01*
Y53446D01*
X77717D01*
X77732Y53461D01*
X77776Y53475D01*
X77834Y53490D01*
X77980Y53548D01*
X78171Y53651D01*
X78405Y53768D01*
X78668Y53929D01*
X78961Y54104D01*
X79268Y54338D01*
X79282Y54353D01*
X79312Y54368D01*
X79356Y54412D01*
X79400Y54456D01*
X79546Y54587D01*
X79736Y54777D01*
X79926Y54997D01*
X80117Y55260D01*
X80292Y55553D01*
X80424Y55875D01*
X81931D01*
Y46233D01*
D02*
G37*
G36*
X71865Y55831D02*
X72128Y55816D01*
X72435Y55802D01*
X72728Y55772D01*
X73021Y55714D01*
X73284Y55655D01*
X73299D01*
X73328Y55641D01*
X73372Y55626D01*
X73430Y55611D01*
X73577Y55538D01*
X73781Y55450D01*
X74001Y55333D01*
X74235Y55173D01*
X74484Y54982D01*
X74718Y54763D01*
X74732D01*
X74747Y54734D01*
X74820Y54646D01*
X74923Y54514D01*
X75069Y54338D01*
X75215Y54104D01*
X75362Y53841D01*
X75508Y53548D01*
X75640Y53212D01*
Y53197D01*
X75654Y53168D01*
X75669Y53124D01*
X75683Y53051D01*
X75713Y52963D01*
X75742Y52846D01*
X75771Y52729D01*
X75800Y52583D01*
X75830Y52422D01*
X75859Y52261D01*
X75918Y51866D01*
X75947Y51427D01*
X75961Y50944D01*
Y50930D01*
Y50886D01*
Y50827D01*
Y50739D01*
X75947Y50637D01*
Y50520D01*
X75918Y50242D01*
X75888Y49920D01*
X75830Y49584D01*
X75757Y49233D01*
X75654Y48896D01*
Y48881D01*
X75640Y48852D01*
X75625Y48794D01*
X75596Y48720D01*
X75552Y48633D01*
X75508Y48530D01*
X75391Y48296D01*
X75245Y48018D01*
X75069Y47740D01*
X74864Y47462D01*
X74630Y47199D01*
X74601Y47184D01*
X74542Y47111D01*
X74425Y47023D01*
X74279Y46921D01*
X74074Y46789D01*
X73840Y46658D01*
X73577Y46540D01*
X73269Y46424D01*
X73240Y46409D01*
X73152Y46394D01*
X73021Y46365D01*
X72816Y46336D01*
X72582Y46292D01*
X72289Y46262D01*
X71938Y46248D01*
X71558Y46233D01*
X67929D01*
Y55845D01*
X71748D01*
X71865Y55831D01*
D02*
G37*
%LPC*%
G36*
X71846Y269867D02*
X69637D01*
Y267424D01*
X71510D01*
X71788Y267439D01*
X72080Y267453D01*
X72358Y267468D01*
X72490Y267483D01*
X72592Y267497D01*
X72695Y267527D01*
X72768Y267541D01*
X72783D01*
X72826Y267570D01*
X72885Y267600D01*
X72973Y267629D01*
X73148Y267761D01*
X73236Y267834D01*
X73309Y267936D01*
X73324Y267951D01*
X73338Y267995D01*
X73368Y268053D01*
X73412Y268141D01*
X73456Y268244D01*
X73485Y268375D01*
X73499Y268507D01*
X73514Y268668D01*
Y268682D01*
Y268756D01*
X73499Y268843D01*
X73485Y268946D01*
X73456Y269063D01*
X73397Y269195D01*
X73338Y269326D01*
X73251Y269443D01*
X73236Y269458D01*
X73207Y269487D01*
X73148Y269546D01*
X73061Y269604D01*
X72958Y269677D01*
X72841Y269736D01*
X72695Y269780D01*
X72534Y269824D01*
X72519D01*
X72475Y269838D01*
X72402D01*
X72270Y269853D01*
X71978D01*
X71846Y269867D01*
D02*
G37*
G36*
X169874Y269613D02*
X167665D01*
Y267170D01*
X169538D01*
X169816Y267185D01*
X170109Y267199D01*
X170387Y267214D01*
X170518Y267229D01*
X170620Y267243D01*
X170723Y267273D01*
X170796Y267287D01*
X170811D01*
X170855Y267316D01*
X170913Y267346D01*
X171001Y267375D01*
X171176Y267507D01*
X171264Y267580D01*
X171337Y267682D01*
X171352Y267697D01*
X171367Y267741D01*
X171396Y267799D01*
X171440Y267887D01*
X171484Y267990D01*
X171513Y268121D01*
X171528Y268253D01*
X171542Y268414D01*
Y268428D01*
Y268502D01*
X171528Y268589D01*
X171513Y268692D01*
X171484Y268809D01*
X171425Y268941D01*
X171367Y269072D01*
X171279Y269189D01*
X171264Y269204D01*
X171235Y269233D01*
X171176Y269292D01*
X171089Y269350D01*
X170986Y269423D01*
X170869Y269482D01*
X170723Y269526D01*
X170562Y269570D01*
X170547D01*
X170504Y269584D01*
X170430D01*
X170299Y269599D01*
X170006D01*
X169874Y269613D01*
D02*
G37*
G36*
X238696Y282756D02*
X235964D01*
Y281425D01*
X235978Y281328D01*
Y281078D01*
X235992Y280829D01*
X236020Y280579D01*
X236061Y280357D01*
X236075Y280260D01*
X236103Y280177D01*
X236117Y280163D01*
X236131Y280107D01*
X236172Y280038D01*
X236214Y279955D01*
X236283Y279858D01*
X236366Y279761D01*
X236464Y279650D01*
X236574Y279567D01*
X236588Y279553D01*
X236630Y279525D01*
X236699Y279497D01*
X236796Y279456D01*
X236907Y279414D01*
X237032Y279373D01*
X237171Y279359D01*
X237323Y279345D01*
X237351D01*
X237407D01*
X237504Y279359D01*
X237628Y279386D01*
X237767Y279428D01*
X237920Y279483D01*
X238058Y279553D01*
X238197Y279664D01*
X238211Y279678D01*
X238253Y279719D01*
X238308Y279788D01*
X238377Y279872D01*
X238461Y279983D01*
X238530Y280121D01*
X238585Y280274D01*
X238627Y280440D01*
Y280454D01*
X238641Y280510D01*
X238655Y280607D01*
X238668Y280746D01*
Y280926D01*
X238682Y281051D01*
Y281175D01*
X238696Y281314D01*
Y282756D01*
D02*
G37*
G36*
X238442Y72451D02*
X235710D01*
Y71119D01*
X235724Y71022D01*
Y70773D01*
X235738Y70523D01*
X235766Y70273D01*
X235807Y70051D01*
X235821Y69954D01*
X235849Y69871D01*
X235863Y69857D01*
X235877Y69802D01*
X235918Y69732D01*
X235960Y69649D01*
X236029Y69552D01*
X236112Y69455D01*
X236210Y69344D01*
X236320Y69261D01*
X236334Y69247D01*
X236376Y69219D01*
X236445Y69191D01*
X236542Y69150D01*
X236653Y69108D01*
X236778Y69067D01*
X236917Y69053D01*
X237069Y69039D01*
X237097D01*
X237153D01*
X237250Y69053D01*
X237374Y69081D01*
X237513Y69122D01*
X237666Y69178D01*
X237804Y69247D01*
X237943Y69358D01*
X237957Y69372D01*
X237999Y69413D01*
X238054Y69483D01*
X238123Y69566D01*
X238207Y69677D01*
X238276Y69816D01*
X238331Y69968D01*
X238373Y70135D01*
Y70148D01*
X238387Y70204D01*
X238401Y70301D01*
X238415Y70440D01*
Y70620D01*
X238428Y70745D01*
Y70870D01*
X238442Y71008D01*
Y72451D01*
D02*
G37*
G36*
X186593Y186250D02*
X184369Y182958D01*
X186593D01*
Y186250D01*
D02*
G37*
G36*
X81398Y243960D02*
X80125D01*
Y237595D01*
X81837D01*
X82012Y237610D01*
X82188D01*
X82393Y237639D01*
X82568Y237654D01*
X82715Y237683D01*
X82729D01*
X82802Y237712D01*
X82890Y237742D01*
X82993Y237771D01*
X83256Y237903D01*
X83388Y237976D01*
X83505Y238078D01*
X83519Y238093D01*
X83563Y238137D01*
X83607Y238195D01*
X83680Y238298D01*
X83768Y238429D01*
X83841Y238590D01*
X83929Y238780D01*
X84002Y239000D01*
Y239014D01*
X84017Y239029D01*
Y239073D01*
X84031Y239117D01*
X84061Y239263D01*
X84104Y239468D01*
X84148Y239717D01*
X84178Y240024D01*
X84192Y240375D01*
X84207Y240770D01*
Y240785D01*
Y240814D01*
Y240872D01*
Y240960D01*
Y241048D01*
X84192Y241150D01*
X84178Y241399D01*
X84163Y241677D01*
X84119Y241955D01*
X84075Y242233D01*
X84002Y242467D01*
X83988Y242496D01*
X83973Y242570D01*
X83929Y242672D01*
X83870Y242804D01*
X83783Y242965D01*
X83695Y243111D01*
X83592Y243272D01*
X83461Y243403D01*
X83446Y243418D01*
X83402Y243462D01*
X83315Y243521D01*
X83212Y243594D01*
X83095Y243667D01*
X82934Y243740D01*
X82759Y243799D01*
X82568Y243857D01*
X82554D01*
X82480Y243872D01*
X82378Y243886D01*
X82217Y243916D01*
X82115D01*
X81998Y243930D01*
X81881D01*
X81734Y243945D01*
X81573D01*
X81398Y243960D01*
D02*
G37*
G36*
X71148Y54222D02*
X69875D01*
Y47857D01*
X71587D01*
X71762Y47872D01*
X71938D01*
X72143Y47901D01*
X72319Y47916D01*
X72465Y47945D01*
X72479D01*
X72553Y47974D01*
X72640Y48004D01*
X72743Y48033D01*
X73006Y48165D01*
X73138Y48238D01*
X73255Y48340D01*
X73269Y48355D01*
X73313Y48399D01*
X73357Y48457D01*
X73430Y48559D01*
X73518Y48691D01*
X73591Y48852D01*
X73679Y49042D01*
X73752Y49262D01*
Y49276D01*
X73767Y49291D01*
Y49335D01*
X73781Y49379D01*
X73811Y49525D01*
X73855Y49730D01*
X73899Y49979D01*
X73928Y50286D01*
X73942Y50637D01*
X73957Y51032D01*
Y51047D01*
Y51076D01*
Y51135D01*
Y51222D01*
Y51310D01*
X73942Y51412D01*
X73928Y51661D01*
X73913Y51939D01*
X73869Y52217D01*
X73825Y52495D01*
X73752Y52729D01*
X73738Y52758D01*
X73723Y52832D01*
X73679Y52934D01*
X73621Y53066D01*
X73533Y53227D01*
X73445Y53373D01*
X73343Y53534D01*
X73211Y53665D01*
X73196Y53680D01*
X73152Y53724D01*
X73065Y53783D01*
X72962Y53856D01*
X72845Y53929D01*
X72684Y54002D01*
X72509Y54061D01*
X72319Y54119D01*
X72304D01*
X72231Y54134D01*
X72128Y54148D01*
X71967Y54178D01*
X71865D01*
X71748Y54192D01*
X71631D01*
X71484Y54207D01*
X71324D01*
X71148Y54222D01*
D02*
G37*
%LPD*%
D10*
X171692Y29756D02*
G03*
X171692Y29756I-2000J0D01*
G01*
D11*
X140366Y106492D02*
G03*
X167175Y163984I-17422J43120D01*
G01*
X79832Y132187D02*
G03*
X140365Y106492I43114J17419D01*
G01*
X105527Y192720D02*
G03*
X79832Y132187I17419J-43114D01*
G01*
X164389Y170711D02*
G03*
X105525Y192719I-41441J-21115D01*
G01*
X164223Y171033D02*
X171120Y173890D01*
X174181Y166499D01*
X167285Y163642D02*
X174181Y166499D01*
D12*
X144676Y198876D02*
G03*
X144676Y198876I-1000J0D01*
G01*
D13*
X103251Y267081D02*
X105156Y268986D01*
X101346Y216916D02*
X106426D01*
X101346D02*
Y219456D01*
X141986Y216916D02*
X147066D01*
Y219456D01*
X141986Y267716D02*
X147066D01*
Y265176D02*
Y267716D01*
Y219456D02*
Y265176D01*
X101346D02*
X103251Y267081D01*
X101346Y219456D02*
Y255016D01*
Y260096D01*
Y265176D01*
X45974Y276606D02*
Y276860D01*
D14*
X215138Y286512D02*
X222758D01*
X202184D02*
X212852D01*
X202184Y272796D02*
X212852D01*
X215138D02*
X222758D01*
X215138Y75654D02*
X222758D01*
X202184D02*
X212852D01*
X202184Y61938D02*
X212852D01*
X215138D02*
X222758D01*
X77708Y279448D02*
Y285448D01*
X75708Y279448D02*
Y285448D01*
X67708Y275448D02*
X85708D01*
X67708Y289448D02*
X85708D01*
X171720Y279702D02*
Y285702D01*
X173720Y279702D02*
Y285702D01*
X163720Y289702D02*
X181720D01*
X163720Y275702D02*
X181720D01*
D15*
X74218Y346080D02*
Y348580D01*
X175718Y346080D02*
Y348580D01*
X151968Y291580D02*
X156968Y294580D01*
X151968Y291580D02*
X156968Y288580D01*
Y294580D01*
X74218Y296580D02*
Y309580D01*
X175718Y296580D02*
Y309580D01*
X74218Y348580D02*
X175718D01*
X150918Y296580D02*
X175718D01*
X74218D02*
X99018D01*
X246512Y258214D02*
X249012D01*
X246512Y181714D02*
X249012D01*
X190012Y204964D02*
X193012Y199964D01*
X187012D02*
X190012Y204964D01*
X187012Y199964D02*
X193012D01*
X197012Y258214D02*
X210012D01*
X197012Y181714D02*
X210012D01*
X249012D02*
Y258214D01*
X197012Y181714D02*
Y206514D01*
Y233414D02*
Y258214D01*
X635Y181206D02*
X3135D01*
X635Y257706D02*
X3135D01*
X56635Y239456D02*
X59635Y234456D01*
X62635Y239456D01*
X56635D02*
X62635D01*
X39635Y181206D02*
X52635D01*
X39635Y257706D02*
X52635D01*
X635Y181206D02*
Y257706D01*
X52635Y232906D02*
Y257706D01*
Y181206D02*
Y206006D01*
X635Y91798D02*
X3135D01*
X635Y168298D02*
X3135D01*
X56635Y150048D02*
X59635Y145048D01*
X62635Y150048D01*
X56635D02*
X62635D01*
X39635Y91798D02*
X52635D01*
X39635Y168298D02*
X52635D01*
X635Y91798D02*
Y168298D01*
X52635Y143498D02*
Y168298D01*
Y91798D02*
Y116598D01*
X197012Y144006D02*
Y168806D01*
Y92306D02*
Y117106D01*
X249012Y92306D02*
Y168806D01*
X197012Y92306D02*
X210012D01*
X197012Y168806D02*
X210012D01*
X187012Y110556D02*
X193012D01*
X187012D02*
X190012Y115556D01*
X193012Y110556D01*
X246512Y92306D02*
X249012D01*
X246512Y168806D02*
X249012D01*
D16*
X39116Y283718D02*
X45974Y276860D01*
X39116Y269748D02*
X45974Y276606D01*
X6350D02*
X45974D01*
D17*
X84602Y83096D02*
Y90716D01*
X165882D01*
Y83096D02*
Y90716D01*
X84602Y10706D02*
Y19596D01*
Y10706D02*
X163342D01*
X165882Y13246D01*
Y15786D01*
Y19596D01*
M02*
